<?xml version="1.0" encoding="utf-8"?>
<!-- Generator: Adobe Illustrator 27.5.0, SVG Export Plug-In . SVG Version: 6.00 Build 0)  -->
<svg version="1.1" xmlns="http://www.w3.org/2000/svg" xmlns:xlink="http://www.w3.org/1999/xlink" x="0px" y="0px"
	 viewBox="0 0 3710 3710" style="enable-background:new 0 0 3710 3710;" xml:space="preserve">
<g id="Background">
	<g>
		<g>
			<rect style="fill:#FFFFFF;" width="3710" height="3710"/>
		</g>
	</g>
</g>
<g id="Illustration">
	<g>
		<linearGradient id="SVGID_1_" gradientUnits="userSpaceOnUse" x1="3422.4897" y1="3616.6389" x2="1366.4615" y2="1397.4336">
			<stop  offset="0" style="stop-color:#DAE3FE"/>
			<stop  offset="1" style="stop-color:#E9EFFD"/>
		</linearGradient>
		<path style="fill:url(#SVGID_1_);" d="M3135.969,2351.997c-282.513,660.342-1028.257,943.974-1612.559,895.614
			c-159.538-13.204-480.532-39.771-731.168-276.789c-481.327-455.177-407.198-1406.622,53.57-1966.781
			c59.337-72.137,470.063-555.446,1110.1-548.977c468.601,4.737,797.508,269.443,837.502,302.421
			c50.523,41.659,161.956,140.655,262.384,297.705C3291.769,1424.204,3312.511,1939.349,3135.969,2351.997z"/>
		<g>
			<path style="fill:#BDD0FB;" d="M857.405,463.393c-54.184,130.668-338.455,903.954,339.27,1301.051
				c0,0,318.196-460.907-318.678-1303.717C872.426,453.354,860.945,454.857,857.405,463.393z"/>
			<path style="opacity:0.86;fill:#FFFFFF;" d="M896.841,601.212c0.632,45.096,2.195,90.244,4.148,135.338
				c1.974,45.101,4.468,90.179,7.489,135.219c6.04,90.077,14.09,180.019,24.902,269.61c10.879,89.568,24.366,178.851,42.685,267.099
				c9.017,44.149,19.63,87.949,31.886,131.226c12.313,43.246,26.343,86.022,43.656,127.36l0.011,0.028
				c1.434,3.424-0.179,7.362-3.603,8.796c-3.425,1.434-7.361-0.179-8.795-3.603l-0.02-0.044
				c-17.297-42.147-31.152-85.469-43.261-129.168c-12.044-43.724-22.403-87.866-31.148-132.292
				c-17.773-88.808-30.652-178.44-40.914-268.288c-10.195-89.867-17.613-180.006-23.015-270.242
				c-2.703-45.119-4.877-90.267-6.531-135.432c-1.633-45.173-2.875-90.333-3.185-135.573c-0.01-1.572,1.255-2.856,2.827-2.866
				c1.565-0.011,2.844,1.243,2.867,2.806V601.212z"/>
		</g>
		<g>
			<path style="fill:#91B3FA;" d="M495.061,495.238c2.16-13.814,21.445-15.556,25.987-2.331
				c43.9,127.85,169.517,459.487,343.305,629.334c282.966,276.551,487.299,740.238,330.817,995.432
				C1195.17,2117.673,259.794,2000.401,495.061,495.238z"/>
			<path style="opacity:0.43;fill:#FFFFFF;" d="M535.359,678.992c0.578,3.306,1.49,7.074,2.284,10.667l2.599,10.871l5.443,21.699
				c3.7,14.451,7.505,28.877,11.375,43.285c7.814,28.799,15.986,57.5,24.42,86.121c16.804,57.261,34.7,114.199,53.693,170.761
				c38.192,113.044,79.849,224.949,127.184,334.444c23.882,54.639,48.251,109.083,74.771,162.491
				c26.561,53.371,54.284,106.182,84.183,157.755c3.598,6.528,7.402,12.933,11.255,19.31l11.472,19.184l11.473,19.186
				c3.902,6.346,7.973,12.587,11.952,18.885c8.068,12.525,15.851,25.246,24.157,37.614l25.138,36.966
				c34.116,48.877,70.58,96.104,109.655,141.193l0.013,0.015c0.607,0.701,0.532,1.762-0.169,2.37
				c-0.689,0.597-1.726,0.532-2.338-0.135c-40.414-44.104-77.687-91.013-112.84-139.431l-25.664-36.817
				c-8.485-12.322-16.44-24.993-24.686-37.475c-4.068-6.277-8.227-12.498-12.218-18.823l-11.737-19.122l-11.739-19.124
				c-3.941-6.359-7.835-12.745-11.521-19.254c-60.385-103.333-113.35-210.865-160.486-320.778
				c-23.695-54.915-45.571-110.584-66.647-166.531c-21.015-55.974-40.87-112.381-59.225-169.274
				c-18.416-56.869-35.934-114.028-51.972-171.606c-7.981-28.799-15.695-57.671-23.051-86.635
				c-3.63-14.496-7.246-28.993-10.661-43.543l-4.979-21.862l-2.371-10.966c-0.722-3.716-1.547-7.214-2.122-11.288
				c-0.128-0.911,0.507-1.755,1.419-1.883c0.891-0.125,1.718,0.48,1.874,1.361L535.359,678.992z"/>
		</g>
		<g>
			<g>
				
					<linearGradient id="SVGID_00000079449342427500983160000003611099247122305713_" gradientUnits="userSpaceOnUse" x1="1615.7725" y1="2715.2627" x2="2198.4014" y2="967.3713">
					<stop  offset="0" style="stop-color:#09005D"/>
					<stop  offset="1" style="stop-color:#1A0F91"/>
				</linearGradient>
				<path style="fill:url(#SVGID_00000079449342427500983160000003611099247122305713_);" d="M3120.168,2778.671
					c0,25.066-20.529,45.575-45.619,45.575H607.646c-25.09,0-45.619-20.509-45.619-45.575L541.5,1361.01
					c0-25.066,29.533-74.003,83.656-70.325l2410.929-62.383c31.481-0.815,61.92,11.302,84.213,33.523
					c22.294,22.221,34.491,52.602,33.748,84.054L3120.168,2778.671z"/>
				<path style="fill:#91B3FA;" d="M3075.13,2734.947c0,23.737-19.422,43.159-43.159,43.159H667.137
					c-23.737,0-43.158-19.422-43.158-43.159l-19.371-1286.965c2.281-77.446,70.181-105.281,111.34-103.638l2310.656-61.991
					c22.117-0.593,43.501,7.928,59.166,23.552c15.665,15.625,24.28,37.008,23.725,59.126L3075.13,2734.947z"/>
				<g>
					
						<linearGradient id="SVGID_00000023998436547512182880000009328176502620695473_" gradientUnits="userSpaceOnUse" x1="644.6428" y1="2065.0354" x2="652.8972" y2="2065.0354">
						<stop  offset="0" style="stop-color:#DAE3FE"/>
						<stop  offset="1" style="stop-color:#E9EFFD"/>
					</linearGradient>
					<path style="fill:url(#SVGID_00000023998436547512182880000009328176502620695473_);" d="M649.536,2120.581
						c-1.834,0-3.334-1.472-3.361-3.311l-1.533-104.371c-0.026-1.856,1.454-3.382,3.311-3.41c1.953,0.046,3.384,1.456,3.41,3.311
						l1.533,104.371c0.026,1.856-1.454,3.382-3.311,3.41C649.569,2120.581,649.553,2120.581,649.536,2120.581z"/>
					
						<linearGradient id="SVGID_00000009576886891872090790000016818129767646027915_" gradientUnits="userSpaceOnUse" x1="636.5502" y1="1608.4375" x2="1479.2867" y2="1608.4375">
						<stop  offset="0" style="stop-color:#DAE3FE"/>
						<stop  offset="1" style="stop-color:#E9EFFD"/>
					</linearGradient>
					<path style="fill:url(#SVGID_00000009576886891872090790000016818129767646027915_);" d="M645.779,1864.818
						c-1.834,0-3.334-1.472-3.36-3.311l-5.868-399.739c0.122-26.66,8.333-47.954,24.407-63.357
						c29.251-28.026,75.051-26.617,76.971-26.546l737.908-19.802c1.913-0.107,3.4,1.414,3.449,3.269
						c0.049,1.856-1.415,3.4-3.272,3.449l-738.099,19.802c-2.058-0.074-45.095-1.393-72.308,24.681
						c-14.709,14.095-22.224,33.766-22.336,58.47l5.868,399.675c0.026,1.856-1.454,3.382-3.311,3.41
						C645.811,1864.818,645.795,1864.818,645.779,1864.818z"/>
				</g>
			</g>
			
				<linearGradient id="SVGID_00000124123077600321174910000016186877728737469838_" gradientUnits="userSpaceOnUse" x1="2914.998" y1="2586.917" x2="422.3407" y2="3193.2385">
				<stop  offset="0" style="stop-color:#09005D"/>
				<stop  offset="1" style="stop-color:#1A0F91"/>
			</linearGradient>
			<path style="fill:url(#SVGID_00000124123077600321174910000016186877728737469838_);" d="M3239.222,2918.437H466.789
				c-4.128,0-7.505-3.377-7.505-7.505v-131.384c0-4.128,3.377-7.505,7.505-7.505h2772.433c4.128,0,7.505,3.377,7.505,7.505v131.384
				C3246.727,2915.059,3243.35,2918.437,3239.222,2918.437z"/>
		</g>
		<g>
			<g>
				
					<linearGradient id="SVGID_00000041261726104022721410000008027629764338500508_" gradientUnits="userSpaceOnUse" x1="2116.6387" y1="624.8638" x2="2761.9285" y2="-827.0375">
					<stop  offset="0" style="stop-color:#FE7062"/>
					<stop  offset="1" style="stop-color:#FF928E"/>
				</linearGradient>
				<path style="fill:url(#SVGID_00000041261726104022721410000008027629764338500508_);" d="M1816.198,517.19l-961.846,795.172
					c18.676,8.99,39.835,13.617,62.167,12.453l1822.36-94.961c31.337-1.634,59.553-14.44,80.905-34.422l-715.279-670.06
					C2026.854,452.63,1898.69,448.993,1816.198,517.19z"/>
			</g>
			
				<linearGradient id="SVGID_00000046311575030957168100000014015602377072666523_" gradientUnits="userSpaceOnUse" x1="1666.796" y1="3619.7625" x2="1858.3666" y2="1623.3969">
				<stop  offset="0" style="stop-color:#FE7062"/>
				<stop  offset="1" style="stop-color:#FF928E"/>
			</linearGradient>
			<path style="fill:url(#SVGID_00000046311575030957168100000014015602377072666523_);" d="M2702.192,2670.159H947.882
				c-70.826,0-128.243-57.417-128.243-128.243V1399.592c0-68.054,53.158-124.256,121.106-128.044l1822.004-101.554
				c76.284-4.252,139.342,58.723,135.19,135.013l-67.694,1243.879C2826.544,2616.903,2770.311,2670.159,2702.192,2670.159z"/>
			<g>
				
					<linearGradient id="SVGID_00000051355926859473776700000011911463560652635838_" gradientUnits="userSpaceOnUse" x1="2117.5583" y1="625.2774" x2="2762.8484" y2="-826.6242">
					<stop  offset="0" style="stop-color:#FE7062"/>
					<stop  offset="1" style="stop-color:#FF928E"/>
				</linearGradient>
				<path style="fill:url(#SVGID_00000051355926859473776700000011911463560652635838_);" d="M1865.998,1980.868l958.963-798.647
					c-18.708-8.923-50.19-34.657-72.519-33.412l-1788.53,101.773c-31.331,1.747-82.667,35.62-103.947,55.679l717.699,667.467
					C1655.578,2046.19,1783.754,2049.364,1865.998,1980.868z"/>
			</g>
			<g>
				<defs>
					<path id="SVGID_00000169535591753122912110000016813829533851722933_" d="M1865.998,1980.868l928.284-773.097
						c14.467-12.049,7.171-35.486-11.564-37.35c-6.526-0.65-13.194-608.744-19.969-608.367L940.745,663.609
						c-21.715,1.211-41.912,615.722-59.348,626.321c-11.858,7.208-13.258,23.934-3.096,33.385l699.363,650.414
						C1655.578,2046.19,1783.754,2049.364,1865.998,1980.868z"/>
				</defs>
				<clipPath id="SVGID_00000092454878768887157680000006926154479366464431_">
					<use xlink:href="#SVGID_00000169535591753122912110000016813829533851722933_"  style="overflow:visible;"/>
				</clipPath>
				<path style="clip-path:url(#SVGID_00000092454878768887157680000006926154479366464431_);fill:#7D97F4;" d="M2558.336,2190.647
					H1113.899V813.946c0-52.685,48.992-96.223,111.69-99.254L2433.01,656.32c68.017-3.288,125.326,42.098,125.326,99.254V2190.647z"
					/>
				<path style="clip-path:url(#SVGID_00000092454878768887157680000006926154479366464431_);fill:#BDD0FB;" d="M2509.509,2131.324
					H1163.925V848.841c0-49.08,45.639-89.638,104.046-92.461l1124.79-54.377c63.363-3.063,116.749,39.217,116.749,92.461V2131.324z"
					/>
			</g>
		</g>
		<g>
			
				<linearGradient id="SVGID_00000026137980516410092730000012617542699211193253_" gradientUnits="userSpaceOnUse" x1="1440.0364" y1="1760.261" x2="1537.4927" y2="2173.6096">
				<stop  offset="0" style="stop-color:#09005D"/>
				<stop  offset="1" style="stop-color:#1A0F91"/>
			</linearGradient>
			<path style="fill:url(#SVGID_00000026137980516410092730000012617542699211193253_);" d="M1283.225,1687.298
				c0,0,129.237,412.102,172.616,498.797c50.356,100.636,217.715,48.196,214.343-33.753
				c-3.373-81.95-174.927-429.912-174.927-429.912L1283.225,1687.298z"/>
			
				<linearGradient id="SVGID_00000165951303986019187570000003040916891522899879_" gradientUnits="userSpaceOnUse" x1="2017.0465" y1="998.4764" x2="2626.0708" y2="2083.1636" gradientTransform="matrix(0.9983 0.0585 -0.0585 0.9983 -109.9439 73.3558)">
				<stop  offset="0" style="stop-color:#4F52FF"/>
				<stop  offset="1" style="stop-color:#4042E2"/>
			</linearGradient>
			<polygon style="fill:url(#SVGID_00000165951303986019187570000003040916891522899879_);" points="1506.977,1405.731 
				2476.367,1131.997 2414.151,2022.848 1460.709,1750.681 			"/>
			
				<ellipse transform="matrix(0.0585 -0.9983 0.9983 0.0585 729.9612 3934.6975)" style="fill:#91B3FA;" cx="2450.992" cy="1580.354" rx="458.901" ry="93.503"/>
			
				<linearGradient id="SVGID_00000060735628934567273910000018152466515990189730_" gradientUnits="userSpaceOnUse" x1="2541.311" y1="1362.0382" x2="2787.4272" y2="1339.6641" gradientTransform="matrix(0.9983 0.0585 -0.0585 0.9983 -109.9439 73.3558)">
				<stop  offset="0" style="stop-color:#4F52FF"/>
				<stop  offset="1" style="stop-color:#4042E2"/>
			</linearGradient>
			<path style="fill:url(#SVGID_00000060735628934567273910000018152466515990189730_);" d="M2433.066,2007.556
				c-7.934-9.075-24.373-43.251-35.113-129.767c-10.381-83.609-12.48-191.388-5.911-303.484
				c6.569-112.096,21.241-218.893,41.317-300.716c20.772-84.67,41.091-116.693,50.03-124.779
				c7.934,9.075,24.373,43.252,35.113,129.768c10.382,83.609,12.48,191.388,5.911,303.484
				c-6.569,112.096-21.242,218.892-41.318,300.716C2462.324,1967.447,2442.006,1999.469,2433.066,2007.556z"/>
			<g>
				<defs>
					<path id="SVGID_00000166666610385345629780000000973697676708722103_" d="M2433.066,2007.556
						c-7.934-9.075-24.373-43.251-35.113-129.767c-10.381-83.609-12.48-191.388-5.911-303.484
						c6.569-112.096,21.241-218.893,41.317-300.716c20.772-84.67,41.091-116.693,50.03-124.779
						c7.934,9.075,24.373,43.252,35.113,129.768c10.382,83.609,124.259,197.938,117.69,310.034
						c-6.569,112.096-133.02,212.342-153.096,294.166C2462.324,1967.447,2442.006,1999.469,2433.066,2007.556z"/>
				</defs>
				<clipPath id="SVGID_00000110432702128118056410000009737921533080039069_">
					<use xlink:href="#SVGID_00000166666610385345629780000000973697676708722103_"  style="overflow:visible;"/>
				</clipPath>
				
					<linearGradient id="SVGID_00000021841483587420866820000014416206472461851281_" gradientUnits="userSpaceOnUse" x1="2851.8257" y1="1336.7941" x2="2188.0564" y2="1374.8796" gradientTransform="matrix(0.9983 0.0585 -0.0585 0.9983 -109.9439 73.3558)">
					<stop  offset="0" style="stop-color:#09005D"/>
					<stop  offset="1" style="stop-color:#1A0F91"/>
				</linearGradient>
				
					<path style="clip-path:url(#SVGID_00000110432702128118056410000009737921533080039069_);fill:url(#SVGID_00000021841483587420866820000014416206472461851281_);" d="
					M2578.067,1581.782c-4.562,77.839-50.191,138.483-133.184,133.619c-82.992-4.863-146.573-71.907-142.012-149.746
					c4.561-77.839,75.538-136.997,158.53-132.134C2544.395,1438.385,2582.629,1503.944,2578.067,1581.782z"/>
			</g>
			
				<linearGradient id="SVGID_00000152253106545065703980000002255196092610036667_" gradientUnits="userSpaceOnUse" x1="1862.9725" y1="993.8442" x2="1772.2375" y2="1111.4636">
				<stop  offset="0" style="stop-color:#09005D"/>
				<stop  offset="1" style="stop-color:#1A0F91"/>
			</linearGradient>
			<path style="fill:url(#SVGID_00000152253106545065703980000002255196092610036667_);" d="M1354.865,1377.59
				c44.998-2.571,109.197-0.683,177.562,19.247c-29.819,117.921-33.658,242.426-14.796,372.685l-195.448-11.453
				c-31.161-1.826-56.406-26.018-59.462-57.082c-6.125-62.268-11.957-166.663,5.621-249.204
				C1277.164,1410.359,1312.582,1380.006,1354.865,1377.59z"/>
			<path style="fill:#BDD0FB;" d="M1466.811,1475.801l-152.278-8.924c-5.169-0.303-9.571-3.28-11.775-7.965
				c-2.203-4.685-1.691-9.976,1.372-14.15c1.282-1.746,3.736-2.114,5.483-0.842c1.746,1.282,2.124,3.736,0.842,5.485
				c-1.334,1.82-1.558,4.124-0.598,6.168c0.961,2.041,2.881,3.341,5.135,3.473l152.278,8.924c3.339,0.196,6.215-2.36,6.41-5.7
				l0.635-10.837c0.196-3.34-2.361-6.214-5.701-6.41l-153.407-8.99c-2.163-0.127-3.813-1.983-3.686-4.145
				c0.127-2.162,1.982-3.813,4.145-3.686l153.407,8.99c7.658,0.449,13.522,7.044,13.073,14.7l-0.635,10.837
				C1481.064,1470.385,1474.469,1476.25,1466.811,1475.801z"/>
			<path style="fill:#BDD0FB;" d="M1449.281,1542.446l-152.278-8.924c-5.169-0.303-9.57-3.28-11.775-7.965
				c-2.203-4.685-1.691-9.975,1.371-14.15c1.281-1.744,3.737-2.114,5.483-0.843c1.746,1.282,2.124,3.736,0.843,5.485
				c-1.335,1.82-1.558,4.125-0.598,6.168c0.961,2.041,2.882,3.341,5.135,3.473l152.278,8.924c3.34,0.196,6.215-2.36,6.411-5.7
				l0.635-10.834c0.196-3.34-2.361-6.216-5.701-6.412l-153.407-8.99c-2.163-0.127-3.813-1.983-3.686-4.145
				c0.127-2.162,1.982-3.813,4.145-3.686l153.407,8.99c7.658,0.449,13.522,7.044,13.073,14.702l-0.635,10.834
				C1463.533,1537.029,1456.939,1542.895,1449.281,1542.446z"/>
			<path style="fill:#BDD0FB;" d="M1646.444,1389.693c-1.659-0.097-3.137-1.251-3.57-2.946c-0.535-2.101,0.733-4.234,2.831-4.771
				l733.003-186.817c2.098-0.534,4.234,0.734,4.77,2.832c0.535,2.101-0.733,4.234-2.831,4.771l-733.003,186.817
				C1647.242,1389.681,1646.838,1389.717,1646.444,1389.693z"/>
			<path style="fill:#BDD0FB;" d="M1546.806,1423.77c-1.544-0.09-2.952-1.094-3.484-2.647c-0.701-2.049,0.393-4.279,2.443-4.98
				l37.921-12.967c2.048-0.706,4.28,0.394,4.981,2.443c0.701,2.049-0.393,4.28-2.443,4.981l-37.922,12.967
				C1547.806,1423.736,1547.299,1423.799,1546.806,1423.77z"/>
			<path style="fill:#BDD0FB;" d="M1458.231,1622.226l-152.278-8.924c-5.169-0.303-9.569-3.28-11.774-7.965
				c-2.204-4.685-1.692-9.976,1.37-14.15c1.282-1.749,3.736-2.119,5.483-0.845c1.746,1.282,2.124,3.736,0.843,5.483
				c-1.336,1.822-1.559,4.129-0.597,6.173c0.961,2.041,2.88,3.341,5.134,3.473l152.278,8.924c3.339,0.196,6.215-2.363,6.411-5.702
				l0.635-10.834c0.196-3.339-2.361-6.214-5.701-6.41l-153.407-8.99c-2.163-0.127-3.813-1.983-3.686-4.145
				c0.127-2.162,1.982-3.813,4.145-3.686l153.407,8.99c7.658,0.449,13.522,7.044,13.073,14.7l-0.635,10.834
				C1472.483,1616.809,1465.889,1622.675,1458.231,1622.226z"/>
			<path style="fill:#BDD0FB;" d="M1467.351,1710.73l-152.278-8.923c-5.169-0.303-9.569-3.28-11.773-7.965
				c-2.204-4.685-1.692-9.976,1.37-14.15c1.283-1.749,3.737-2.119,5.483-0.845c1.746,1.282,2.124,3.736,0.843,5.483
				c-1.336,1.822-1.559,4.129-0.597,6.173c0.961,2.041,2.88,3.341,5.134,3.473l152.278,8.923c3.34,0.196,6.215-2.36,6.411-5.7
				l0.635-10.837c0.196-3.339-2.361-6.214-5.701-6.409l-153.407-8.99c-2.163-0.127-3.813-1.983-3.686-4.145
				c0.127-2.162,1.982-3.813,4.145-3.686l153.407,8.99c7.658,0.449,13.522,7.044,13.073,14.699l-0.635,10.837
				C1481.604,1705.314,1475.009,1711.179,1467.351,1710.73z"/>
			<path style="fill:#BDD0FB;" d="M1575.422,2195.356c-7.017-0.411-14.064-1.584-21.049-3.541
				c-30.564-8.56-54.573-30.451-65.868-60.062l-105.822-277.412c-0.773-2.023,0.242-4.288,2.266-5.063s4.291,0.246,5.062,2.269
				l105.822,277.413c10.401,27.261,32.509,47.419,60.655,55.301c27.662,7.752,56.44,2.161,78.96-15.331
				c1.207-0.937,2.421-1.902,3.642-2.892c1.681-1.365,4.151-1.11,5.517,0.574c1.365,1.681,1.109,4.153-0.574,5.517
				c-1.266,1.028-2.523,2.027-3.775,2.997C1621.447,2189.735,1598.621,2196.716,1575.422,2195.356z"/>
			<path style="fill:#BDD0FB;" d="M1370.473,1815.841c-1.494-0.087-2.87-1.03-3.438-2.516l-11.805-30.948
				c-0.773-2.023,0.242-4.288,2.266-5.063c2.022-0.771,4.291,0.247,5.063,2.267l11.806,30.945c0.773,2.025-0.243,4.291-2.267,5.065
				C1371.563,1815.795,1371.01,1815.873,1370.473,1815.841z"/>
			<path style="fill:#FFFFFF;" d="M2556.059,1576.421c-2.037-0.119-3.663-1.796-3.689-3.867
				c-0.471-38.298-12.024-67.507-34.338-86.816c-38.588-33.39-96.868-26.107-97.454-26.026c-2.159,0.28-4.118-1.224-4.403-3.371
				c-0.286-2.148,1.225-4.121,3.373-4.404c2.526-0.335,62.389-7.802,103.618,27.869c24.084,20.839,36.549,52.013,37.048,92.65
				c0.027,2.166-1.707,3.944-3.874,3.971C2556.245,1576.429,2556.152,1576.426,2556.059,1576.421z"/>
		</g>
		<g>
			<g>
				<circle style="fill:#91B3FA;" cx="3004.514" cy="1417.708" r="244.359"/>
				
					<ellipse transform="matrix(0.7071 -0.7071 0.7071 0.7071 -123.9392 2537.2397)" style="fill:#7D97F4;" cx="3000.75" cy="1418.228" rx="221.627" ry="221.627"/>
				
					<linearGradient id="SVGID_00000176751886596277561490000008126586407319351223_" gradientUnits="userSpaceOnUse" x1="3129.9778" y1="1292.3082" x2="3210.0356" y2="1292.3082">
					<stop  offset="0" style="stop-color:#DAE3FE"/>
					<stop  offset="1" style="stop-color:#E9EFFD"/>
				</linearGradient>
				<path style="fill:url(#SVGID_00000176751886596277561490000008126586407319351223_);" d="M3204.997,1343.018
					c-1.982,0-3.863-1.175-4.663-3.121c-14.486-35.127-38.135-65.994-68.386-89.261c-2.208-1.697-2.622-4.862-0.925-7.069
					c1.703-2.208,4.867-2.617,7.069-0.922c31.656,24.346,56.401,56.647,71.563,93.41c1.06,2.573-0.164,5.52-2.737,6.582
					C3206.287,1342.895,3205.637,1343.018,3204.997,1343.018z"/>
				
					<linearGradient id="SVGID_00000034091049733880034330000013477574241375125383_" gradientUnits="userSpaceOnUse" x1="2880.1619" y1="1216.808" x2="3091.334" y2="1216.808">
					<stop  offset="0" style="stop-color:#DAE3FE"/>
					<stop  offset="1" style="stop-color:#E9EFFD"/>
				</linearGradient>
				<path style="fill:url(#SVGID_00000034091049733880034330000013477574241375125383_);" d="M2885.206,1237.861
					c-1.703,0-3.364-0.863-4.312-2.425c-1.444-2.381-0.686-5.481,1.694-6.925c35.312-21.428,75.921-32.756,117.439-32.756
					c30.599,0,60.283,5.994,88.228,17.815c2.566,1.085,3.764,4.042,2.681,6.606c-1.083,2.563-4.04,3.772-6.606,2.678
					c-26.698-11.293-55.059-17.018-84.303-17.018c-39.674,0-78.474,10.82-112.208,31.292
					C2887.001,1237.624,2886.099,1237.861,2885.206,1237.861z"/>
				
					<linearGradient id="SVGID_00000017482740139778865520000001049856034358686612_" gradientUnits="userSpaceOnUse" x1="2773.356" y1="1436.2747" x2="2861.0752" y2="1436.2747">
					<stop  offset="0" style="stop-color:#DAE3FE"/>
					<stop  offset="1" style="stop-color:#E9EFFD"/>
				</linearGradient>
				<path style="fill:url(#SVGID_00000017482740139778865520000001049856034358686612_);" d="M2856.031,1595.949
					c-1.158,0-2.323-0.397-3.272-1.211c-50.461-43.162-79.403-105.969-79.403-172.314c0-52.44,18.325-103.575,51.6-143.987
					c1.769-2.148,4.946-2.456,7.095-0.688c2.15,1.771,2.458,4.947,0.689,7.097c-31.794,38.61-49.302,87.47-49.302,137.578
					c0,63.394,27.656,123.409,75.872,164.654c2.117,1.808,2.366,4.992,0.554,7.107
					C2858.866,1595.35,2857.455,1595.949,2856.031,1595.949z"/>
			</g>
			<g>
				<path style="fill:#FFFFFF;" d="M3000.865,1553.534c-76.45,0-138.646-62.197-138.646-138.646s62.196-138.646,138.646-138.646
					c76.449,0,138.646,62.197,138.646,138.646S3077.315,1553.534,3000.865,1553.534z M3000.865,1299.476
					c-63.639,0-115.413,51.774-115.413,115.412s51.774,115.412,115.413,115.412c63.638,0,115.411-51.774,115.411-115.412
					S3064.503,1299.476,3000.865,1299.476z"/>
				<path style="fill-rule:evenodd;clip-rule:evenodd;fill:#FFFFFF;" d="M2957.432,1468.282v-99.676
					c0-10.651,11.594-17.252,20.753-11.817l83.99,49.838c8.972,5.323,8.972,18.31,0,23.634l-83.99,49.839
					C2969.026,1485.534,2957.432,1478.932,2957.432,1468.282z"/>
			</g>
		</g>
		<g>
			<g>
				
					<ellipse transform="matrix(0.7071 -0.7071 0.7071 0.7071 -579.5991 2574.6516)" style="fill:#91B3FA;" cx="2818.08" cy="1986.964" rx="244.359" ry="244.359"/>
				<circle style="fill:#7D97F4;" cx="2814.315" cy="1987.483" r="221.628"/>
				
					<linearGradient id="SVGID_00000160879826531596278830000003867761372091335066_" gradientUnits="userSpaceOnUse" x1="2943.5422" y1="1861.5635" x2="3023.6035" y2="1861.5635">
					<stop  offset="0" style="stop-color:#DAE3FE"/>
					<stop  offset="1" style="stop-color:#E9EFFD"/>
				</linearGradient>
				<path style="fill:url(#SVGID_00000160879826531596278830000003867761372091335066_);" d="M3018.565,1912.273
					c-1.982,0-3.863-1.175-4.664-3.121c-14.489-35.128-38.138-65.994-68.389-89.261c-2.209-1.697-2.622-4.862-0.926-7.069
					c1.7-2.205,4.86-2.619,7.069-0.922c31.656,24.346,56.404,56.645,71.566,93.41c1.06,2.573-0.164,5.52-2.737,6.582
					C3019.855,1912.15,3019.205,1912.273,3018.565,1912.273z"/>
				
					<linearGradient id="SVGID_00000124129808988565821850000006757208014297894287_" gradientUnits="userSpaceOnUse" x1="2693.7295" y1="1786.0631" x2="2904.9019" y2="1786.0631">
					<stop  offset="0" style="stop-color:#DAE3FE"/>
					<stop  offset="1" style="stop-color:#E9EFFD"/>
				</linearGradient>
				<path style="fill:url(#SVGID_00000124129808988565821850000006757208014297894287_);" d="M2698.774,1807.116
					c-1.703,0-3.364-0.863-4.312-2.425c-1.444-2.381-0.686-5.481,1.693-6.925c35.312-21.428,75.918-32.756,117.436-32.756
					c30.599,0,60.283,5.994,88.231,17.815c2.566,1.085,3.764,4.042,2.681,6.606c-1.083,2.563-4.04,3.771-6.606,2.678
					c-26.701-11.292-55.065-17.018-84.306-17.018c-39.674,0-78.471,10.82-112.205,31.292
					C2700.569,1806.88,2699.667,1807.116,2698.774,1807.116z"/>
				
					<linearGradient id="SVGID_00000028302571413268697370000013938769914865902781_" gradientUnits="userSpaceOnUse" x1="2586.9207" y1="2005.5292" x2="2674.6399" y2="2005.5292">
					<stop  offset="0" style="stop-color:#DAE3FE"/>
					<stop  offset="1" style="stop-color:#E9EFFD"/>
				</linearGradient>
				<path style="fill:url(#SVGID_00000028302571413268697370000013938769914865902781_);" d="M2669.595,2165.204
					c-1.158,0-2.323-0.397-3.272-1.211c-50.461-43.166-79.403-105.972-79.403-172.314c0-52.44,18.325-103.575,51.6-143.987
					c1.772-2.15,4.949-2.458,7.095-0.688c2.149,1.771,2.458,4.947,0.689,7.097c-31.794,38.61-49.302,87.47-49.302,137.578
					c0,63.391,27.656,123.405,75.872,164.654c2.117,1.808,2.366,4.991,0.555,7.107
					C2672.431,2164.605,2671.02,2165.204,2669.595,2165.204z"/>
			</g>
			<g>
				<path style="fill:#FFFFFF;" d="M2936.696,1949.782L2936.696,1949.782c-9.281-24.867-31.894-42.583-58.216-42.726
					c-34.475-0.189-62.22,29.812-61.82,67.01c-0.401-37.198-28.906-67.506-63.82-67.697c-26.887-0.147-49.756,17.596-58.795,42.809
					l-0.001,0c-34.487,90.437,124.214,173.39,124.214,173.39S2971.768,2038.446,2936.696,1949.782z"/>
			</g>
		</g>
		<g>
			<g>
				<circle style="fill:#91B3FA;" cx="2850.537" cy="866.699" r="235.351"/>
				<circle style="fill:#7D97F4;" cx="2846.911" cy="867.199" r="213.458"/>
				
					<linearGradient id="SVGID_00000152984505110258863650000005834320167747974810_" gradientUnits="userSpaceOnUse" x1="2971.1882" y1="745.9211" x2="3048.6699" y2="745.9211">
					<stop  offset="0" style="stop-color:#DAE3FE"/>
					<stop  offset="1" style="stop-color:#E9EFFD"/>
				</linearGradient>
				<path style="fill:url(#SVGID_00000152984505110258863650000005834320167747974810_);" d="M3043.632,794.946
					c-1.982,0-3.863-1.175-4.664-3.121c-13.941-33.802-36.7-63.504-65.81-85.894c-2.208-1.697-2.622-4.862-0.926-7.069
					c1.703-2.205,4.867-2.617,7.069-0.922c30.514,23.468,54.369,54.604,68.987,90.043c1.06,2.573-0.164,5.52-2.737,6.582
					C3044.921,794.823,3044.271,794.946,3043.632,794.946z"/>
				
					<linearGradient id="SVGID_00000181790799724505484680000015009883184252280484_" gradientUnits="userSpaceOnUse" x1="2730.584" y1="673.2042" x2="2934.3428" y2="673.2042">
					<stop  offset="0" style="stop-color:#DAE3FE"/>
					<stop  offset="1" style="stop-color:#E9EFFD"/>
				</linearGradient>
				<path style="fill:url(#SVGID_00000181790799724505484680000015009883184252280484_);" d="M2735.628,693.667
					c-1.703,0-3.364-0.863-4.312-2.425c-1.444-2.381-0.686-5.481,1.693-6.925c34.039-20.657,73.181-31.576,113.202-31.576
					c29.493,0,58.111,5.778,85.051,17.174c2.566,1.085,3.764,4.042,2.681,6.606c-1.083,2.561-4.037,3.772-6.606,2.678
					c-25.693-10.866-52.988-16.376-81.126-16.376c-38.174,0-75.511,10.413-107.971,30.112
					C2737.424,693.431,2736.521,693.667,2735.628,693.667z"/>
				
					<linearGradient id="SVGID_00000038405742952748087150000012460074999248144051_" gradientUnits="userSpaceOnUse" x1="2627.7134" y1="884.5806" x2="2712.5708" y2="884.5806">
					<stop  offset="0" style="stop-color:#DAE3FE"/>
					<stop  offset="1" style="stop-color:#E9EFFD"/>
				</linearGradient>
				<path style="fill:url(#SVGID_00000038405742952748087150000012460074999248144051_);" d="M2707.527,1038.556
					c-1.159,0-2.324-0.397-3.272-1.211c-48.643-41.61-76.541-102.152-76.541-166.105c0-50.549,17.666-99.842,49.739-138.797
					c1.769-2.15,4.946-2.458,7.095-0.688s2.458,4.947,0.689,7.097c-30.593,37.153-47.442,84.17-47.442,132.388
					c0,61,26.612,118.752,73.01,158.445c2.117,1.808,2.366,4.992,0.555,7.107
					C2710.362,1037.957,2708.951,1038.556,2707.527,1038.556z"/>
			</g>
			<path style="fill:#FFFFFF;" d="M2752.635,816.279c2.041,33.345,42.089,105.993,68.183,149.976
				c10.432,17.583,36.759,17.469,46.878-0.2c25.304-44.185,64.028-117.102,65.481-150.436
				c2.357-54.101-38.369-100.375-91.121-100.204C2789.28,715.585,2749.322,762.158,2752.635,816.279z M2794.461,816.126
				c-1.058-28.639,20.428-52.64,48.015-52.736c27.581-0.095,49.473,23.748,48.92,52.381c-0.536,27.712-22.027,49.613-48.022,49.714
				C2817.373,865.586,2795.485,843.844,2794.461,816.126z"/>
			<circle style="fill:#FFFFFF;" cx="2848.127" cy="1027.436" r="23.572"/>
		</g>
		<g>
			
				<linearGradient id="SVGID_00000086679072112908391780000011269235022269274811_" gradientUnits="userSpaceOnUse" x1="1312.5674" y1="2852.8569" x2="1801.5044" y2="2121.9729">
				<stop  offset="0" style="stop-color:#A22B25"/>
				<stop  offset="1" style="stop-color:#C0423C"/>
			</linearGradient>
			<path style="fill:url(#SVGID_00000086679072112908391780000011269235022269274811_);" d="M1535.386,3070.268
				c-0.511-0.196-275.165-481.182-312.28-526.447c-6.245-7.613-15.907-11.49-25.685-10.325l-76.661,9.136l-90.06,194.833
				l150.038-87.38c-14.846,102.678,177.897,255.27,244,310.949c6.708,5.651,7.259,15.771,1.2,22.114l-26.39,27.626
				c43.326,43.917,93.321,72.116,149.748,85.158L1535.386,3070.268z"/>
			
				<linearGradient id="SVGID_00000016034894149202190580000007887515403274138255_" gradientUnits="userSpaceOnUse" x1="-13390.0078" y1="-5743.6494" x2="-13423.248" y2="-5233.9595" gradientTransform="matrix(-0.8974 -0.4412 -0.4412 0.8974 -13005.6787 2161.1482)">
				<stop  offset="0" style="stop-color:#09005D"/>
				<stop  offset="1" style="stop-color:#1A0F91"/>
			</linearGradient>
			<path style="fill:url(#SVGID_00000016034894149202190580000007887515403274138255_);" d="M1414.814,2995.864
				c0,0-16.843,5.441-22.546,20.442c-2.728,7.177,0.213,15.306,6.454,19.778c27.734,19.87,119.216,84.019,161.432,96.583
				c3.46,1.03,6.753-2.101,5.974-5.626c-2.167-9.807-9.174-29.391-31.751-58.061l2.026,4.097c2.563,5.185-3.083,10.583-8.12,7.74
				C1500.049,3064.876,1442.536,3029.988,1414.814,2995.864z"/>
			
				<linearGradient id="SVGID_00000050622372279268366490000010868956604917114292_" gradientUnits="userSpaceOnUse" x1="2283.2495" y1="1834.2809" x2="1834.6372" y2="2313.1372">
				<stop  offset="0" style="stop-color:#A22B25"/>
				<stop  offset="1" style="stop-color:#C0423C"/>
			</linearGradient>
			<path style="fill:url(#SVGID_00000050622372279268366490000010868956604917114292_);" d="M1428.406,3188.317
				c-0.461-0.296-41.668-99.577-42.128-99.872c-37.782-230.034-129.963-427.041-157.149-478.88
				c-4.574-8.719-13.252-14.471-23.064-15.309l-76.923-6.568l-127.626,172.575l164.616-55.207
				c-35.319,97.549,122.555,285.99,176.023,353.895c5.426,6.891,3.917,16.914-3.3,21.899l-31.435,21.713
				c33.542,51.776,76.795,89.509,129.414,113.701L1428.406,3188.317z"/>
			
				<linearGradient id="SVGID_00000070091384899970990540000005122509038682389664_" gradientUnits="userSpaceOnUse" x1="-11348.1367" y1="-9015.6152" x2="-11381.375" y2="-8505.958" gradientTransform="matrix(-0.7895 -0.6137 -0.6137 0.7895 -13023.2676 3191.1018)">
				<stop  offset="0" style="stop-color:#09005D"/>
				<stop  offset="1" style="stop-color:#1A0F91"/>
			</linearGradient>
			<path style="fill:url(#SVGID_00000070091384899970990540000005122509038682389664_);" d="M1325.387,3091.052
				c0,0-17.595,1.919-26.216,15.456c-4.124,6.476-2.889,15.032,2.318,20.675c23.139,25.071,99.746,106.406,138.546,127.254
				c3.181,1.709,7.038-0.691,6.99-4.301c-0.137-10.042-3.036-30.64-19.344-63.285l1.154,4.422c1.461,5.597-5.161,9.74-9.518,5.937
				C1394.891,3175.886,1345.629,3130.081,1325.387,3091.052z"/>
			<g>
				
					<linearGradient id="SVGID_00000168104509930771410800000016907865306315830158_" gradientUnits="userSpaceOnUse" x1="15664.8799" y1="2357.0134" x2="15308.7441" y2="2747.2991" gradientTransform="matrix(1 0 0 1 -14469.2578 0)">
					<stop  offset="0" style="stop-color:#4F52FF"/>
					<stop  offset="1" style="stop-color:#4042E2"/>
				</linearGradient>
				<path style="fill:url(#SVGID_00000168104509930771410800000016907865306315830158_);" d="M769.073,2551.344
					c0,0-69.587,103.502-75.297,150.715c-5.71,47.213,19.242,63.54,92.076,69.562c216.742,17.917,323.588-47.042,323.588-47.042
					c14.827-94.535,25.377-118.585,149.206-169.985c0,0-156.622,12.434-188.144,0.202
					C1038.982,2542.563,769.073,2551.344,769.073,2551.344z"/>
			</g>
			<g>
				
					<linearGradient id="SVGID_00000181067284862945979610000007480286808909812119_" gradientUnits="userSpaceOnUse" x1="-16540.9277" y1="-2015.317" x2="-16434.4492" y2="-1748.2175" gradientTransform="matrix(-0.9446 -0.3283 -0.3283 0.9446 -15165.4209 -1699.1722)">
					<stop  offset="0" style="stop-color:#09005D"/>
					<stop  offset="1" style="stop-color:#1A0F91"/>
				</linearGradient>
				<path style="fill:url(#SVGID_00000181067284862945979610000007480286808909812119_);" d="M1046.564,1971.461
					c0,0-48.466-57.344-99.993,13.013c-9.332,12.743-45.176,2.23-58.316,28.902c-6.785,13.771-21.439,21.595-36.536,18.81
					c-37.599-6.935-99.057-7.519-129.401,51.402c-23.161,44.974-5.279,71.295,17.874,86.3
					c17.005,11.022,23.074,33.397,12.791,50.858c-9.863,16.748-11.717,39.427,13.749,66.722
					c57.07,61.166,170.043-38.817,170.043-38.817l89.698-211.959L1046.564,1971.461z"/>
				
					<linearGradient id="SVGID_00000097495686720070914080000002020604253421960619_" gradientUnits="userSpaceOnUse" x1="794.3514" y1="2684.0828" x2="964.6357" y2="2255.9402">
					<stop  offset="0" style="stop-color:#4F52FF"/>
					<stop  offset="1" style="stop-color:#4042E2"/>
				</linearGradient>
				<path style="fill:url(#SVGID_00000097495686720070914080000002020604253421960619_);" d="M957.265,2537.642
					c0,0,81.034-77.161,120.923-128.269c21.562-27.626,28.333-63.995,18.362-97.591c-18.212-61.355-50.576-124.902-53.527-134.792
					c-4.524-15.16-95.385-14.529-95.385-14.529s-178.797,116.041-249.046,312.605l78.895,24.562c0,0,46.684-78.32,92.81-128.115
					c0,0-79.815,105.438-82.626,148.602L957.265,2537.642z"/>
				
					<linearGradient id="SVGID_00000061464714528949300230000008463593127399154076_" gradientUnits="userSpaceOnUse" x1="-14747.3096" y1="2524.8799" x2="-14315.9648" y2="2524.8799" gradientTransform="matrix(-1 0 0 1 -13904.4951 0)">
					<stop  offset="0" style="stop-color:#A22B25"/>
					<stop  offset="1" style="stop-color:#C0423C"/>
				</linearGradient>
				<path style="fill:url(#SVGID_00000061464714528949300230000008463593127399154076_);" d="M1111.662,2568.091l-60.889-66.248
					l-70.321,18.935c0,0-81.983,12.702-128.905,0c-46.922-12.701-46.922-12.701-46.922-12.701l-106.034-33.011l-16.653,47.064
					c-4.229,11.949,0.021,25.215,10.352,32.557c9.174,6.519,19.927,13.682,26.78,16.681c13.964,6.108,321.666,1.931,321.666,1.931
					L1111.662,2568.091z"/>
				
					<linearGradient id="SVGID_00000038374043814881939250000006074279479500483254_" gradientUnits="userSpaceOnUse" x1="1015.4625" y1="2117.5657" x2="1181.2505" y2="1828.5574">
					<stop  offset="0" style="stop-color:#A22B25"/>
					<stop  offset="1" style="stop-color:#C0423C"/>
				</linearGradient>
				<path style="fill:url(#SVGID_00000038374043814881939250000006074279479500483254_);" d="M1010.084,2053.215l-61.068,113.558
					c4.032,24.788,66.466,25.487,76.11,10.685c0.982-1.506,1.543-3.249,1.916-5.008l36.531-75.876
					c1.568-7.399-18.715-32.329-25.391-35.883l-24.273-12.92C1004.562,2042.797,1043.562,2042.406,1010.084,2053.215z"/>
				<g>
					
						<linearGradient id="SVGID_00000120532903946340510210000006788508687533183669_" gradientUnits="userSpaceOnUse" x1="-16602.5449" y1="19685.0371" x2="-16568.9395" y2="19413.9512" gradientTransform="matrix(-0.5458 -0.8379 -0.8379 0.5458 -13151.3809 -4320.769)">
						<stop  offset="0" style="stop-color:#A22B25"/>
						<stop  offset="1" style="stop-color:#C0423C"/>
					</linearGradient>
					<path style="fill:url(#SVGID_00000120532903946340510210000006788508687533183669_);" d="M1133.675,2026.564
						c0,0,6.893,38.366-23.261,87.146c-30.155,48.78-60.183,46.578-75.439,29.181c-15.256-17.396-33.53-46.37-25.215-95.023
						C1018.074,1999.216,1123.258,1977.639,1133.675,2026.564z"/>
					
						<linearGradient id="SVGID_00000143601547690447970650000001350663086346721456_" gradientUnits="userSpaceOnUse" x1="-13136.5664" y1="-8616.3623" x2="-13037.2988" y2="-8367.3525" gradientTransform="matrix(-0.5458 -0.8379 -0.8379 0.5458 -13151.3809 -4320.769)">
						<stop  offset="0" style="stop-color:#09005D"/>
						<stop  offset="1" style="stop-color:#1A0F91"/>
					</linearGradient>
					<path style="fill:url(#SVGID_00000143601547690447970650000001350663086346721456_);" d="M1046.264,2053.156
						c0,0,48.828-64.135,86.316-8.226l-0.632,19.314c0,0,48.748-2.279,43.462-47.21c-5.286-44.932-45.085-75.625-100.259-60.275
						c-55.174,15.351-87.413,32.834-93.644,71.141c-6.231,38.307,25.048,32.048,25.048,32.048s11.948-26.432,26.375-28.237
						c14.427-1.806,9.214,19.102,9.214,19.102L1046.264,2053.156z"/>
					
						<linearGradient id="SVGID_00000145750828802310987640000009262543648541764497_" gradientUnits="userSpaceOnUse" x1="-16548.248" y1="19691.7715" x2="-16514.6426" y2="19420.6875" gradientTransform="matrix(-0.5458 -0.8379 -0.8379 0.5458 -13151.3809 -4320.769)">
						<stop  offset="0" style="stop-color:#A22B25"/>
						<stop  offset="1" style="stop-color:#C0423C"/>
					</linearGradient>
					<path style="fill:url(#SVGID_00000145750828802310987640000009262543648541764497_);" d="M1035.059,2051.446
						c0,0,25.293-32.822,2.27-39.634c-23.024-6.813-22.164,32.16-20.664,46.659L1035.059,2051.446z"/>
				</g>
			</g>
			<g>
				
					<linearGradient id="SVGID_00000005974292854342691620000014793232264370424748_" gradientUnits="userSpaceOnUse" x1="-14834.5303" y1="1844.3184" x2="-15060.1797" y2="1906.163" gradientTransform="matrix(-0.9988 -0.0494 -0.0494 0.9988 -13863.0254 -55.0328)">
					<stop  offset="0" style="stop-color:#09005D"/>
					<stop  offset="1" style="stop-color:#1A0F91"/>
				</linearGradient>
				<path style="fill:url(#SVGID_00000005974292854342691620000014793232264370424748_);" d="M910.11,2594.311
					c0.214,0.01,0.428,0.016,0.644,0.015l280.064-0.306c6.923-0.005,12.53-5.624,12.523-12.548
					c-0.007-6.926-5.646-12.647-12.551-12.522l-280.064,0.305c-6.923,0.006-12.53,5.625-12.522,12.548
					C898.212,2588.511,903.486,2593.984,910.11,2594.311z"/>
				
					<linearGradient id="SVGID_00000122700208012846434840000001706096484736216217_" gradientUnits="userSpaceOnUse" x1="-3801.6311" y1="2483.5767" x2="-1772.1541" y2="2312.8274" gradientTransform="matrix(-1 0 0 1 -2353.3853 0)">
					<stop  offset="0" style="stop-color:#09005D"/>
					<stop  offset="1" style="stop-color:#1A0F91"/>
				</linearGradient>
				<path style="fill:url(#SVGID_00000122700208012846434840000001706096484736216217_);" d="M1442.584,2340.03h-233.24
					c-17.206,0-32.867,9.929-40.206,25.492l-107.826,228.64h289.854c11.088,0,21.051-6.775,25.126-17.087l83.615-211.572
					C1464.738,2353.277,1455.729,2340.03,1442.584,2340.03z"/>
				<path style="fill:#91B3FA;" d="M1278.264,2457.26c-5.054,15.703-1.321,30.954,8.34,34.063c9.661,3.11,21.589-7.1,26.643-22.803
					c5.055-15.703,1.321-30.954-8.34-34.063C1295.247,2431.348,1283.319,2441.557,1278.264,2457.26z"/>
			</g>
		</g>
	</g>
</g>
</svg>
