<?xml version="1.0" encoding="utf-8"?>
<!-- Generator: Adobe Illustrator 27.5.0, SVG Export Plug-In . SVG Version: 6.00 Build 0)  -->
<svg version="1.1" xmlns="http://www.w3.org/2000/svg" xmlns:xlink="http://www.w3.org/1999/xlink" x="0px" y="0px"
	 viewBox="0 0 500 500" style="enable-background:new 0 0 500 500;" xml:space="preserve">
<g id="Background_Simple">
	<g>
		<path style="fill:#92E3A9;" d="M335.807,76.301c-36.039-5.547-73.149,0.501-100.904,23.025
			c-26.978,21.894-39.25,58.531-67.411,78.88c-43.535,31.459-105.264,21.008-130.454,77.538
			c-8.992,20.18-11.357,42.727-11.058,64.818c0.374,27.668,4.883,55.663,16.832,80.62c11.949,24.957,31.847,46.717,57.314,57.536
			c37.573,15.962,81.123,6.429,118.846-9.176c15.561-6.437,31.182-13.982,47.999-14.863c21.182-1.11,41.227,8.436,61.346,15.155
			c24.144,8.064,50.886,12.125,74.853,3.549c18.76-6.713,34.179-20.624,46.549-36.244c22.012-27.793,35.786-62.03,39.156-97.324
			C498.482,219.177,446.554,93.348,335.807,76.301z"/>
		<path style="opacity:0.7;fill:#FFFFFF;" d="M335.807,76.301c-36.039-5.547-73.149,0.501-100.904,23.025
			c-26.978,21.894-39.25,58.531-67.411,78.88c-43.535,31.459-105.264,21.008-130.454,77.538
			c-8.992,20.18-11.357,42.727-11.058,64.818c0.374,27.668,4.883,55.663,16.832,80.62c11.949,24.957,31.847,46.717,57.314,57.536
			c37.573,15.962,81.123,6.429,118.846-9.176c15.561-6.437,31.182-13.982,47.999-14.863c21.182-1.11,41.227,8.436,61.346,15.155
			c24.144,8.064,50.886,12.125,74.853,3.549c18.76-6.713,34.179-20.624,46.549-36.244c22.012-27.793,35.786-62.03,39.156-97.324
			C498.482,219.177,446.554,93.348,335.807,76.301z"/>
	</g>
</g>
<g id="Plants">
	<g>
		<path style="fill:#92E3A9;" d="M284.053,234.339c-5.661,2.076-19.132,0.959-19.142,0.959c-0.139-0.012,3.432-8.656,3.72-9.176
			c3.332-6.014,13.309-15.672,20.863-14.184c5.441,1.073,8.162,6.747,6.612,11.838C294.523,228.977,288.874,232.57,284.053,234.339z
			"/>
		<path style="fill:#92E3A9;" d="M110.113,177.77c7.69-0.363,16.14,10.656,18.554,17.094c0.208,0.557,2.471,9.632,2.33,9.622
			c0,0-0.131-0.009-0.163-0.012c1.348,1.729,2.771,3.599,4.287,5.673c2.768,3.853,5.86,8.229,8.902,13.221
			c3.055,4.981,6.234,10.477,9.06,16.569c2.84,6.103,5.516,12.668,7.399,19.788c0.021,0.08,0.033,0.167,0.054,0.248
			c0.096-2.254,0.575-8.547,0.667-9.025c1.293-6.752,7.758-19.041,15.401-19.983c5.504-0.677,9.858,3.865,9.973,9.186
			c0.116,5.434-4.13,10.609-8.159,13.794c-4.543,3.591-16.735,6.599-17.706,6.836c1.731,6.796,2.954,13.913,3.798,21.181
			c0.486,4.156,0.846,8.357,1.153,12.574c0.146-1.947,0.29-3.685,0.338-3.926c1.293-6.754,7.758-19.04,15.4-19.982
			c5.506-0.679,9.859,3.866,9.973,9.186c0.118,5.434-4.129,10.609-8.158,13.793c-4.088,3.231-14.431,6.005-17.177,6.702
			c0.1,1.618,0.22,3.234,0.315,4.854c0.457,7.768,0.878,15.522,1.526,23.115c0.226,2.676,0.548,5.302,0.86,7.931
			c0.132-1.727,0.257-3.182,0.299-3.401c1.293-6.754,7.758-19.041,15.398-19.983c5.507-0.677,9.861,3.866,9.976,9.188
			c0.117,5.432-4.131,10.609-8.16,13.792c-3.9,3.084-13.425,5.729-16.685,6.574c0.401,2.683,0.798,5.371,1.308,7.953
			c0.388,1.755,0.64,3.471,1.127,5.213c0.446,1.733,0.888,3.451,1.326,5.15c0.964,3.243,1.937,6.595,2.956,9.734
			c0.692,2.19,1.393,4.263,2.091,6.353c-0.256-2.66-0.65-7.881-0.633-8.32c0.17-4.565,2.236-11.878,5.772-16.894
			c0.021-0.674,0.1-1.344,0.247-2.004c1.159-5.194,6.321-8.793,11.587-7.045c7.307,2.424,11.231,15.745,11.169,22.618
			c-0.003,0.406-0.534,4.801-0.915,7.569c0.473-1.593,0.91-3.145,1.416-4.779c0.977-3.237,2.048-6.439,3.185-9.89
			c0.608-1.646,1.223-3.309,1.844-4.989c0.579-1.678,1.406-3.377,2.108-5.086c1.71-3.927,3.636-7.825,5.661-11.707
			c-2.834-0.862-12.85-4.069-16.745-7.45c-3.879-3.364-7.884-8.731-7.519-14.152c0.359-5.31,4.915-9.65,10.384-8.72
			c7.59,1.29,13.488,13.862,14.47,20.667c0.061,0.425,0.216,5.386,0.249,8.113c1.235-2.323,2.458-4.65,3.785-6.961
			c3.828-6.672,7.911-13.306,11.958-19.941c1.24-2.032,2.451-4.071,3.671-6.108c-1.012-0.297-13-3.851-17.364-7.637
			c-3.878-3.365-7.884-8.73-7.518-14.153c0.358-5.309,4.915-9.65,10.383-8.718c7.591,1.29,13.488,13.861,14.47,20.666
			c0.073,0.513,0.286,7.652,0.252,9.47c2.686-4.487,5.32-8.983,7.738-13.523c3.344-6.257,6.278-12.582,8.669-18.919
			c-0.472-0.138-13-3.791-17.47-7.669c-3.879-3.365-7.884-8.73-7.518-14.153c0.358-5.31,4.915-9.648,10.384-8.719
			c7.59,1.29,13.486,13.862,14.468,20.666c0.077,0.534,0.302,8.216,0.243,9.61c0.142-0.376,0.331-0.751,0.467-1.128
			c2.465-6.8,4-13.695,5.122-20.221c0.659-3.79,1.076-7.45,1.402-11.02c-2.403-0.441-13.363-2.579-17.771-5.624
			c-4.226-2.92-8.796-7.813-9.028-13.242c-0.227-5.317,3.827-10.132,9.363-9.808c7.686,0.449,14.928,12.297,16.651,18.952
			c0.094,0.363,0.64,4.147,0.997,6.909c0.122-1.613,0.28-3.277,0.366-4.824c0.339-5.812,0.293-11.156,0.214-15.888
			c-0.067-2.691-0.181-5.123-0.313-7.396c-2.131-1.664-10.641-8.474-13.104-13.123c-2.405-4.538-4.206-10.985-1.91-15.911
			c2.249-4.824,8.065-7.228,12.829-4.39c6.615,3.941,7.582,17.792,6.046,24.494c-0.134,0.578-3.254,9.396-3.366,9.312
			c0,0-0.104-0.081-0.128-0.1c0.17,2.185,0.326,4.531,0.445,7.097c0.185,4.74,0.348,10.096,0.132,15.939
			c-0.201,5.839-0.58,12.178-1.585,18.818c-0.998,6.656-2.387,13.608-4.745,20.585c-0.027,0.079-0.065,0.158-0.092,0.236
			c1.324-1.827,5.196-6.81,5.537-7.159c4.803-4.919,16.974-11.6,23.867-8.171c4.966,2.473,6.092,8.664,3.251,13.165
			c-2.901,4.597-9.298,6.57-14.414,7.003c-5.771,0.489-17.599-3.727-18.539-4.067c-2.308,6.625-5.212,13.236-8.52,19.763
			c-1.886,3.734-3.903,7.436-5.972,11.123c1.195-1.542,2.275-2.912,2.446-3.089c4.805-4.92,16.977-11.6,23.867-8.169
			c4.968,2.471,6.091,8.661,3.252,13.164c-2.898,4.597-9.299,6.571-14.414,7.003c-5.193,0.441-15.348-2.953-18.025-3.886
			c-0.808,1.407-1.599,2.819-2.414,4.221c-3.905,6.731-7.829,13.432-11.479,20.121c-1.287,2.357-2.468,4.725-3.659,7.091
			c1.063-1.369,1.97-2.513,2.126-2.674c4.803-4.918,16.975-11.601,23.868-8.17c4.966,2.472,6.091,8.663,3.252,13.164
			c-2.901,4.597-9.298,6.572-14.415,7.004c-4.956,0.421-14.357-2.627-17.542-3.721c-1.146,2.459-2.299,4.92-3.297,7.355
			c-0.645,1.678-1.384,3.248-1.935,4.969c-0.585,1.692-1.163,3.368-1.736,5.028c-0.985,3.235-2.023,6.569-2.904,9.749
			c-0.631,2.208-1.191,4.324-1.761,6.453c1.254-2.361,3.806-6.931,4.063-7.29c4.001-5.59,15.021-14.037,22.355-11.691
			c5.283,1.691,7.332,7.64,5.206,12.519c-2.169,4.983-8.194,7.904-13.185,9.108c-5.497,1.324-17.354-0.903-18.834-1.192
			c-0.931,3.527-1.804,6.967-2.575,10.226c-0.167,0.697-0.305,1.33-0.464,2.012h-4.764c0.261-1.027,0.524-2.056,0.803-3.119
			c0.931-3.585,1.997-7.397,3.13-11.302c-0.877-0.411-5.848-2.78-10.212-5.575c-4.19,4.023-14.57,8.4-15.913,8.956
			c1.168,3.456,2.339,6.806,3.494,9.949c0.138,0.379,0.271,0.722,0.407,1.092h-4.852c-1.155-3.386-2.321-6.999-3.482-10.727
			c-1.464,0.215-13.437,1.904-18.875,0.328c-4.931-1.431-10.817-4.625-12.757-9.703c-1.9-4.97,0.422-10.819,5.778-12.266
			c7.432-2.009,18.053,6.936,21.794,12.704c0.222,0.34,2.204,4.3,3.413,6.818c-0.485-1.588-0.974-3.125-1.455-4.767
			c-0.973-3.239-1.846-6.5-2.799-10.005c-0.402-1.709-0.806-3.435-1.216-5.178c-0.441-1.72-0.691-3.594-1.048-5.406
			c-0.741-4.22-1.284-8.532-1.737-12.887c-2.838,0.842-12.961,3.695-18.076,3.023c-5.091-0.668-11.391-2.932-14.078-7.658
			c-2.631-4.626-1.223-10.76,3.851-13.002c7.043-3.11,18.897,4.123,23.469,9.256c0.285,0.319,3.152,4.373,4.683,6.629
			c-0.251-2.62-0.515-5.234-0.683-7.894c-0.486-7.676-0.739-15.462-1.027-23.229c-0.086-2.379-0.201-4.748-0.308-7.12
			c-1.007,0.311-12.965,3.961-18.694,3.21c-5.092-0.666-11.393-2.932-14.078-7.658c-2.631-4.625-1.223-10.759,3.851-13
			c7.042-3.111,18.896,4.121,23.468,9.255c0.344,0.387,4.461,6.225,5.435,7.761c-0.235-5.225-0.519-10.429-1.006-15.548
			c-0.662-7.063-1.704-13.958-3.206-20.563c-0.468,0.147-12.933,4.011-18.8,3.242c-5.092-0.667-11.393-2.933-14.08-7.658
			c-2.63-4.625-1.223-10.759,3.851-13.001c7.044-3.111,18.896,4.122,23.469,9.255c0.358,0.403,4.784,6.686,5.505,7.882
			c-0.09-0.392-0.141-0.809-0.236-1.199c-1.693-7.03-4.216-13.629-6.882-19.69c-1.541-3.525-3.213-6.809-4.91-9.967
			c-2.249,0.958-12.569,5.222-17.926,5.114c-5.134-0.104-11.646-1.664-14.834-6.065c-3.123-4.309-2.397-10.56,2.399-13.346
			c6.659-3.865,19.234,2.022,24.343,6.623c0.278,0.249,2.82,3.106,4.642,5.213c-0.787-1.414-1.574-2.887-2.355-4.226
			c-2.923-5.036-5.91-9.467-8.587-13.37c-1.54-2.206-2.976-4.171-4.34-5.996c-2.695-0.21-13.55-1.196-18.17-3.714
			c-4.507-2.459-9.569-6.843-10.371-12.219C101.049,183.244,104.574,178.03,110.113,177.77z"/>
		<path style="fill:#92E3A9;" d="M147.43,229.081c-0.123,0.067-1.913-9.113-1.96-9.705c-0.536-6.854,2.456-20.413,9.579-23.339
			c5.13-2.108,10.529,1.125,12.043,6.227c1.548,5.208-1.18,11.323-4.226,15.458C159.292,222.576,147.438,229.075,147.43,229.081z"/>
	</g>
</g>
<g id="Banknotes_2">
	<g>
		<g>
			<path style="fill:#FFFFFF;stroke:#263238;stroke-miterlimit:10;" d="M143.171,372.521c0,0-30.318-0.382-37.411-11.72H26.558
				c0,0,6.41,11.616,16.436,11.72H143.171z"/>
			<path style="fill:#FFFFFF;stroke:#263238;stroke-miterlimit:10;" d="M103.458,364.538H38.942c0,0,1.195,2.626-2.091,4.059
				c0,0,2.389,2.626,7.467,3.581h82.138c0,0-10.454-0.955-16.129-4.297C110.327,367.881,103.757,368.836,103.458,364.538z"/>
		</g>
		<g>
			
				<rect x="131.211" y="440.656" transform="matrix(-1 -1.224647e-16 1.224647e-16 -1 444.4405 903.8322)" style="fill:#263238;stroke:#263238;stroke-miterlimit:10;" width="182.018" height="22.52"/>
			
				<rect x="31.035" y="440.656" transform="matrix(-1 -1.224647e-16 1.224647e-16 -1 244.0869 903.8322)" style="fill:#FFFFFF;stroke:#263238;stroke-miterlimit:10;" width="182.018" height="22.52"/>
			<line style="fill:#FFFFFF;stroke:#263238;stroke-miterlimit:10;" x1="211.8" y1="446.661" x2="167.347" y2="446.661"/>
			<line style="fill:#FFFFFF;stroke:#263238;stroke-miterlimit:10;" x1="203.035" y1="451.666" x2="138.546" y2="451.666"/>
			<line style="fill:#FFFFFF;stroke:#263238;stroke-miterlimit:10;" x1="177.364" y1="456.17" x2="188.634" y2="456.17"/>
			<line style="fill:#FFFFFF;stroke:#263238;stroke-miterlimit:10;" x1="193.017" y1="456.17" x2="211.174" y2="456.17"/>
			<line style="fill:#FFFFFF;stroke:#263238;stroke-miterlimit:10;" x1="32.108" y1="455.169" x2="89.084" y2="455.169"/>
			<line style="fill:#FFFFFF;stroke:#263238;stroke-miterlimit:10;" x1="37.117" y1="452.166" x2="44.63" y2="452.166"/>
			<line style="fill:#FFFFFF;stroke:#263238;stroke-miterlimit:10;" x1="79.692" y1="451.666" x2="54.648" y2="451.666"/>
			<line style="fill:#FFFFFF;stroke:#263238;stroke-miterlimit:10;" x1="32.108" y1="445.66" x2="54.022" y2="445.66"/>
			<line style="fill:none;stroke:#8A8A8A;stroke-miterlimit:10;" x1="310.725" y1="450.164" x2="299.455" y2="450.164"/>
			<line style="fill:none;stroke:#8A8A8A;stroke-miterlimit:10;" x1="313.229" y1="455.169" x2="278.167" y2="455.169"/>
			<line style="fill:none;stroke:#8A8A8A;stroke-miterlimit:10;" x1="214.931" y1="458.172" x2="231.835" y2="458.172"/>
			<line style="fill:none;stroke:#8A8A8A;stroke-miterlimit:10;" x1="213.052" y1="450.164" x2="258.758" y2="450.164"/>
			<line style="fill:none;stroke:#8A8A8A;stroke-miterlimit:10;" x1="298.203" y1="443.659" x2="271.906" y2="443.659"/>
			
				<rect x="114.128" y="440.656" transform="matrix(-1 -1.224647e-16 1.224647e-16 -1 249.543 903.3317)" style="fill:#FFFFFF;stroke:#263238;stroke-miterlimit:10;" width="21.288" height="22.02"/>
		</g>
		<g>
			
				<rect x="128.876" y="417.944" transform="matrix(-1 -1.224647e-16 1.224647e-16 -1 439.7697 858.4089)" style="fill:#263238;stroke:#263238;stroke-miterlimit:10;" width="182.018" height="22.52"/>
			
				<rect x="28.699" y="417.944" transform="matrix(-1 -1.224647e-16 1.224647e-16 -1 239.4161 858.4089)" style="fill:#FFFFFF;stroke:#263238;stroke-miterlimit:10;" width="182.018" height="22.52"/>
			<line style="fill:#FFFFFF;stroke:#263238;stroke-miterlimit:10;" x1="209.465" y1="423.95" x2="165.011" y2="423.95"/>
			<line style="fill:#FFFFFF;stroke:#263238;stroke-miterlimit:10;" x1="200.699" y1="428.954" x2="136.21" y2="428.954"/>
			<line style="fill:#FFFFFF;stroke:#263238;stroke-miterlimit:10;" x1="175.029" y1="433.458" x2="186.299" y2="433.458"/>
			<line style="fill:#FFFFFF;stroke:#263238;stroke-miterlimit:10;" x1="190.681" y1="433.458" x2="208.839" y2="433.458"/>
			<line style="fill:#FFFFFF;stroke:#263238;stroke-miterlimit:10;" x1="29.773" y1="432.457" x2="86.748" y2="432.457"/>
			<line style="fill:#FFFFFF;stroke:#263238;stroke-miterlimit:10;" x1="34.781" y1="429.455" x2="42.295" y2="429.455"/>
			<line style="fill:#FFFFFF;stroke:#263238;stroke-miterlimit:10;" x1="77.356" y1="428.954" x2="52.312" y2="428.954"/>
			<line style="fill:#FFFFFF;stroke:#263238;stroke-miterlimit:10;" x1="29.773" y1="422.949" x2="51.686" y2="422.949"/>
			<line style="fill:none;stroke:#8A8A8A;stroke-miterlimit:10;" x1="308.389" y1="427.453" x2="297.119" y2="427.453"/>
			<line style="fill:none;stroke:#8A8A8A;stroke-miterlimit:10;" x1="310.894" y1="432.457" x2="275.832" y2="432.457"/>
			<line style="fill:none;stroke:#8A8A8A;stroke-miterlimit:10;" x1="212.595" y1="435.46" x2="229.5" y2="435.46"/>
			<line style="fill:none;stroke:#8A8A8A;stroke-miterlimit:10;" x1="210.717" y1="427.453" x2="256.422" y2="427.453"/>
			<line style="fill:none;stroke:#8A8A8A;stroke-miterlimit:10;" x1="295.867" y1="420.947" x2="269.571" y2="420.947"/>
			
				<rect x="111.792" y="417.944" transform="matrix(-1 -1.224647e-16 1.224647e-16 -1 244.8722 857.9085)" style="fill:#FFFFFF;stroke:#263238;stroke-miterlimit:10;" width="21.288" height="22.02"/>
		</g>
		<g>
			
				<rect x="136.271" y="395.233" transform="matrix(-1 -1.224647e-16 1.224647e-16 -1 454.5606 812.9856)" style="fill:#263238;stroke:#263238;stroke-miterlimit:10;" width="182.018" height="22.52"/>
			
				<rect x="36.095" y="395.233" transform="matrix(-1 -1.224647e-16 1.224647e-16 -1 254.207 812.9856)" style="fill:#FFFFFF;stroke:#263238;stroke-miterlimit:10;" width="182.018" height="22.52"/>
			<line style="fill:#FFFFFF;stroke:#263238;stroke-miterlimit:10;" x1="216.86" y1="401.238" x2="172.407" y2="401.238"/>
			<line style="fill:#FFFFFF;stroke:#263238;stroke-miterlimit:10;" x1="208.095" y1="406.243" x2="143.606" y2="406.243"/>
			<line style="fill:#FFFFFF;stroke:#263238;stroke-miterlimit:10;" x1="182.424" y1="410.747" x2="193.694" y2="410.747"/>
			<line style="fill:#FFFFFF;stroke:#263238;stroke-miterlimit:10;" x1="198.077" y1="410.747" x2="216.234" y2="410.747"/>
			<line style="fill:#FFFFFF;stroke:#263238;stroke-miterlimit:10;" x1="37.168" y1="409.746" x2="94.144" y2="409.746"/>
			<line style="fill:#FFFFFF;stroke:#263238;stroke-miterlimit:10;" x1="42.177" y1="406.743" x2="49.69" y2="406.743"/>
			<line style="fill:#FFFFFF;stroke:#263238;stroke-miterlimit:10;" x1="84.752" y1="406.243" x2="59.708" y2="406.243"/>
			<line style="fill:#FFFFFF;stroke:#263238;stroke-miterlimit:10;" x1="37.168" y1="400.237" x2="59.082" y2="400.237"/>
			<line style="fill:none;stroke:#8A8A8A;stroke-miterlimit:10;" x1="315.785" y1="404.741" x2="304.515" y2="404.741"/>
			<line style="fill:none;stroke:#8A8A8A;stroke-miterlimit:10;" x1="318.289" y1="409.746" x2="283.227" y2="409.746"/>
			<line style="fill:none;stroke:#8A8A8A;stroke-miterlimit:10;" x1="219.991" y1="412.748" x2="236.895" y2="412.748"/>
			<line style="fill:none;stroke:#8A8A8A;stroke-miterlimit:10;" x1="218.112" y1="404.741" x2="263.818" y2="404.741"/>
			<line style="fill:none;stroke:#8A8A8A;stroke-miterlimit:10;" x1="303.263" y1="398.235" x2="276.966" y2="398.235"/>
			
				<rect x="119.188" y="395.233" transform="matrix(-1 -1.224647e-16 1.224647e-16 -1 259.663 812.4851)" style="fill:#FFFFFF;stroke:#263238;stroke-miterlimit:10;" width="21.288" height="22.02"/>
		</g>
		<g>
			
				<rect x="130.627" y="372.521" transform="matrix(-1 -1.224647e-16 1.224647e-16 -1 443.271 767.5622)" style="fill:#263238;stroke:#263238;stroke-miterlimit:10;" width="182.018" height="22.52"/>
			
				<rect x="30.45" y="372.521" transform="matrix(-1 -1.224647e-16 1.224647e-16 -1 242.9174 767.5622)" style="fill:#FFFFFF;stroke:#263238;stroke-miterlimit:10;" width="182.018" height="22.52"/>
			<line style="fill:#FFFFFF;stroke:#263238;stroke-miterlimit:10;" x1="211.215" y1="378.526" x2="166.762" y2="378.526"/>
			<line style="fill:#FFFFFF;stroke:#263238;stroke-miterlimit:10;" x1="202.45" y1="383.531" x2="137.961" y2="383.531"/>
			<line style="fill:#FFFFFF;stroke:#263238;stroke-miterlimit:10;" x1="176.779" y1="388.035" x2="188.049" y2="388.035"/>
			<line style="fill:#FFFFFF;stroke:#263238;stroke-miterlimit:10;" x1="192.432" y1="388.035" x2="210.589" y2="388.035"/>
			<line style="fill:#FFFFFF;stroke:#263238;stroke-miterlimit:10;" x1="31.523" y1="387.034" x2="88.499" y2="387.034"/>
			<line style="fill:#FFFFFF;stroke:#263238;stroke-miterlimit:10;" x1="36.532" y1="384.031" x2="44.045" y2="384.031"/>
			<line style="fill:#FFFFFF;stroke:#263238;stroke-miterlimit:10;" x1="79.107" y1="383.531" x2="54.063" y2="383.531"/>
			<line style="fill:#FFFFFF;stroke:#263238;stroke-miterlimit:10;" x1="31.523" y1="377.526" x2="53.437" y2="377.526"/>
			<line style="fill:none;stroke:#8A8A8A;stroke-miterlimit:10;" x1="310.14" y1="382.03" x2="298.87" y2="382.03"/>
			<line style="fill:none;stroke:#8A8A8A;stroke-miterlimit:10;" x1="312.644" y1="387.034" x2="277.582" y2="387.034"/>
			<line style="fill:none;stroke:#8A8A8A;stroke-miterlimit:10;" x1="214.346" y1="390.037" x2="231.251" y2="390.037"/>
			<line style="fill:none;stroke:#8A8A8A;stroke-miterlimit:10;" x1="212.467" y1="382.03" x2="258.173" y2="382.03"/>
			<line style="fill:none;stroke:#8A8A8A;stroke-miterlimit:10;" x1="297.618" y1="375.524" x2="271.321" y2="375.524"/>
			
				<rect x="113.543" y="372.521" transform="matrix(-1 -1.224647e-16 1.224647e-16 -1 248.3735 767.0617)" style="fill:#FFFFFF;stroke:#263238;stroke-miterlimit:10;" width="21.287" height="22.02"/>
		</g>
	</g>
</g>
<g id="Banknotes_3">
	<g>
		<g>
			<rect x="283.28" y="118.62" style="fill:#263238;stroke:#263238;stroke-miterlimit:10;" width="174.24" height="344.556"/>
			<line style="fill:none;stroke:#8A8A8A;stroke-miterlimit:10;" x1="438.684" y1="120.19" x2="438.684" y2="179.84"/>
			<line style="fill:none;stroke:#8A8A8A;stroke-miterlimit:10;" x1="449.672" y1="135.103" x2="449.672" y2="160.218"/>
			<line style="fill:none;stroke:#8A8A8A;stroke-miterlimit:10;" x1="444.178" y1="129.609" x2="444.178" y2="219.083"/>
			<line style="fill:none;stroke:#8A8A8A;stroke-miterlimit:10;" x1="453.596" y1="118.62" x2="453.596" y2="235.565"/>
			<line style="fill:none;stroke:#8A8A8A;stroke-miterlimit:10;" x1="440.253" y1="462.391" x2="440.253" y2="401.172"/>
			<line style="fill:none;stroke:#8A8A8A;stroke-miterlimit:10;" x1="446.532" y1="463.176" x2="446.532" y2="449.834"/>
			<line style="fill:none;stroke:#8A8A8A;stroke-miterlimit:10;" x1="448.102" y1="445.124" x2="448.102" y2="390.969"/>
			<line style="fill:none;stroke:#8A8A8A;stroke-miterlimit:10;" x1="441.038" y1="393.323" x2="441.038" y2="304.634"/>
		</g>
		<rect x="258.949" y="118.62" style="fill:#92E3A9;stroke:#263238;stroke-miterlimit:10;" width="174.24" height="344.556"/>
		<path style="fill:#FFFFFF;stroke:#263238;stroke-miterlimit:10;" d="M418.277,142.951c-7.104,0-12.895-5.556-13.303-12.558
			H287.165c-0.409,7.002-6.199,12.558-13.303,12.558c-0.805,0-1.589-0.083-2.355-0.22v289.271c0.766-0.137,1.55-0.22,2.355-0.22
			c7.369,0,13.343,5.974,13.343,13.343c0,2.271-0.571,4.407-1.571,6.279h120.873c-1.001-1.872-1.571-4.008-1.571-6.279
			c0-7.369,5.974-13.343,13.343-13.343c0.805,0,1.589,0.084,2.355,0.22V142.731C419.866,142.868,419.082,142.951,418.277,142.951z
			 M342.538,343.092c-27.525,0-49.839-24.246-49.839-54.156c0-29.909,22.314-54.156,49.839-54.156s49.839,24.246,49.839,54.156
			C392.377,318.845,370.063,343.092,342.538,343.092z"/>
		<rect x="259.734" y="270.099" style="fill:#FFFFFF;stroke:#263238;stroke-miterlimit:10;" width="197.467" height="35.319"/>
		<rect x="433.57" y="270.099" style="fill:#3D3D3D;stroke:#8A8A8A;stroke-miterlimit:10;" width="23.632" height="35.319"/>
	</g>
</g>
<g id="Character">
	<g>
		<g>
			<path style="fill:#263238;stroke:#263238;stroke-miterlimit:10;" d="M68.683,441.746l-5.82,8.731l-11.376,8.995v3.704h38.891
				l-1.323-12.964v-5.82C89.054,444.392,73.181,437.513,68.683,441.746z"/>
			<polygon style="fill:#FFFFFF;stroke:#263238;stroke-miterlimit:10;" points="90.026,459.737 51.486,459.737 51.486,463.176 
				90.377,463.176 			"/>
		</g>
		<g>
			<path style="fill:#263238;stroke:#263238;stroke-miterlimit:10;" d="M132.899,441.746l6.203,8.731l12.125,8.995v3.704h-41.45
				l1.41-12.964v-5.82C111.187,444.392,128.105,437.513,132.899,441.746z"/>
			<polygon style="fill:#FFFFFF;stroke:#263238;stroke-miterlimit:10;" points="110.151,459.737 151.227,459.737 151.227,463.176 
				109.777,463.176 			"/>
		</g>
		<g>
			<path style="fill:#92E3A9;stroke:#263238;stroke-miterlimit:10;" d="M51.334,260.682c0,0,9.081,102.48,9.729,121.938
				c0.649,19.458,6.81,45.727,6.81,45.727l-2.919,4.54l2.919,10.053c0,0,6.81-1.621,10.378-0.324
				c3.567,1.297,10.053,2.919,10.053,2.919s3.243-8.756,3.567-12.648c0.324-3.892-3.892-13.297-3.892-13.297l-0.649-117.074h5.838
				l14.918,123.884l-0.649,7.459l2.919,11.675c0,0,17.188-3.567,18.485-3.892c1.297-0.324,2.919,0.324,2.919,0.324
				s1.946-4.216,1.946-5.513c0-1.297-2.594-8.756-2.594-8.756l-0.649-58.05V266.52v-6.81l-79.13-1.621V260.682z"/>
			<g>
				<polyline style="fill:none;stroke:#263238;stroke-linecap:round;stroke-linejoin:round;stroke-miterlimit:10;" points="
					127.721,305.943 129.492,344.706 121.941,345.392 121.941,350.197 127.432,350.54 				"/>
				
					<line style="fill:none;stroke:#263238;stroke-linecap:round;stroke-linejoin:round;stroke-miterlimit:10;" x1="126.403" y1="277.097" x2="127.547" y2="302.145"/>
				<path style="fill:none;stroke:#263238;stroke-linecap:round;stroke-linejoin:round;stroke-miterlimit:10;" d="M123.097,373.211
					c0.254,6.926,0.803,12.94,1.934,13.364c2.745,1.03,3.432,2.059,3.432,2.059"/>
				<path style="fill:none;stroke:#263238;stroke-linecap:round;stroke-linejoin:round;stroke-miterlimit:10;" d="M122.971,351.569
					c0,0-0.177,8.759,0.008,17.517"/>
				
					<line style="fill:none;stroke:#263238;stroke-linecap:round;stroke-linejoin:round;stroke-miterlimit:10;" x1="79.386" y1="299.061" x2="93.114" y2="300.091"/>
				<polyline style="fill:none;stroke:#263238;stroke-linecap:round;stroke-linejoin:round;stroke-miterlimit:10;" points="
					83.847,266.115 84.19,285.334 90.368,289.795 				"/>
				
					<line style="fill:none;stroke:#263238;stroke-linecap:round;stroke-linejoin:round;stroke-miterlimit:10;" x1="90.368" y1="272.979" x2="91.397" y2="296.659"/>
				
					<line style="fill:none;stroke:#263238;stroke-linecap:round;stroke-linejoin:round;stroke-miterlimit:10;" x1="86.133" y1="382.809" x2="86.593" y2="406.48"/>
				
					<line style="fill:none;stroke:#263238;stroke-linecap:round;stroke-linejoin:round;stroke-miterlimit:10;" x1="84.534" y1="300.434" x2="86.02" y2="376.963"/>
				<path style="fill:none;stroke:#263238;stroke-linecap:round;stroke-linejoin:round;stroke-miterlimit:10;" d="M112.332,276.067
					c0,0,4.805,9.953,13.728,6.864"/>
				<path style="fill:none;stroke:#263238;stroke-linecap:round;stroke-linejoin:round;stroke-miterlimit:10;" d="M64.285,276.067
					c0,0-3.432,7.55-8.923,8.58"/>
			</g>
		</g>
		<polygon style="fill:#FFFFFF;stroke:#263238;stroke-miterlimit:10;" points="84.669,146.334 74.356,149.452 65.722,260.255 
			111.29,260.975 113.689,147.054 		"/>
		<path style="fill:#FFFFFF;stroke:#263238;stroke-miterlimit:10;" d="M81.007,141.987h-2.432l-1.216,3.162l0.486,26.755
			l15.08-9.729l14.837,14.107l1.946-31.863c0,0,0.73-1.459-1.459-2.432c-2.189-0.973-2.919-1.216-2.919-1.216L81.007,141.987z"/>
		<path style="fill:#FFFFFF;stroke:#263238;stroke-miterlimit:10;" d="M79.548,134.204l0.73,10.945c0,0,7.054,15.323,11.675,17.512
			c4.621,2.189,15.323-18.242,15.323-18.242l-0.73-12.161H79.305L79.548,134.204z"/>
		<path style="fill:#263238;stroke:#263238;stroke-miterlimit:10;" d="M79.548,134.204c0,0,8.756,18.972,13.864,19.701
			c5.108,0.73,13.377-17.512,13.377-19.215S79.548,134.204,79.548,134.204z"/>
		<g>
			<path style="fill:#FFFFFF;stroke:#263238;stroke-miterlimit:10;" d="M74.933,117.916c0,0-4.225-3.457-4.802,1.345
				c-0.576,4.801,5.57,9.219,5.57,9.219L74.933,117.916z"/>
			<path style="fill:#FFFFFF;stroke:#263238;stroke-miterlimit:10;" d="M109.235,117.916c0,0,4.225-3.457,4.801,1.345
				c0.576,4.801-5.57,9.219-5.57,9.219L109.235,117.916z"/>
			<path style="fill:#FFFFFF;stroke:#263238;stroke-miterlimit:10;" d="M74.164,118.493c0,0,2.305,13.444,4.225,15.941
				c1.921,2.497,7.874,11.139,13.444,12.676c5.57,1.536,14.212-9.219,15.941-12.868c1.729-3.649,2.305-19.782,2.305-19.782
				l-0.192-8.643c0,0-0.576-6.338-3.073-9.795c-2.497-3.457-13.252-5.762-20.358-3.073c-7.106,2.689-13.06,15.173-13.06,17.669
				C73.396,113.115,74.164,118.493,74.164,118.493z"/>
			<path style="fill:#263238;stroke:#263238;stroke-miterlimit:10;" d="M86.84,103.512c0,0-5.954,6.914-8.643,8.258
				c-2.689,1.344-3.457,1.921-3.457,1.921l0.384,8.066l-3.073-10.947c0,0-3.841-11.716-3.073-16.901
				c0.768-5.186,18.246-10.179,24.391-12.1c6.146-1.921,8.451,1.921,12.484,4.994c4.033,3.073,8.259,5.378,7.682,10.563
				c-0.576,5.186-2.689,10.563-2.689,10.563s-0.96,14.404-0.96,14.981c0,0.576-1.729-14.212-1.729-14.212s-3.073-0.576-3.841-4.225
				c-0.768-3.649-0.96-7.682-0.96-7.682s-2.497,5.186-4.993,7.682c-2.497,2.497-8.643,4.802-9.603,4.61
				c-0.96-0.192,0.96-4.802,0.96-4.802l-3.457,3.265L86.84,103.512z"/>
			<g>
				<path style="fill:none;stroke:#263238;stroke-miterlimit:10;" d="M88.377,130.4c0,0,1.729,1.536,3.265,1.921
					c1.536,0.384,4.225-1.921,4.993-2.497"/>
				<path style="fill:#FFFFFF;stroke:#263238;stroke-miterlimit:10;" d="M87.8,135.778c0,0,4.417,3.457,10.371-0.576"/>
				<ellipse style="fill:#263238;" cx="84.824" cy="121.373" rx="1.248" ry="2.113"/>
				<ellipse style="fill:#263238;" cx="99.42" cy="121.373" rx="1.248" ry="2.113"/>
				<path style="fill:none;stroke:#263238;stroke-miterlimit:10;" d="M96.443,114.651c0,0,3.841-2.305,7.682,1.152"/>
				<path style="fill:none;stroke:#263238;stroke-miterlimit:10;" d="M86.264,114.459c0,0-3.457-2.113-6.146,0.96"/>
				<line style="fill:none;stroke:#263238;stroke-miterlimit:10;" x1="99.9" y1="125.023" x2="104.125" y2="124.062"/>
				<line style="fill:none;stroke:#263238;stroke-miterlimit:10;" x1="80.502" y1="123.87" x2="83.959" y2="125.023"/>
			</g>
		</g>
		<path style="fill:#263238;stroke:#263238;stroke-miterlimit:10;" d="M77.602,169.958l-2.189,105.074l-25.053-1.216l-1.459-2.919
			c0,0-3.405,0-3.892-2.676c-0.486-2.676,3.405-61.537,3.405-61.537l-21.404-1.946l14.351-27.971c0,0,4.378-19.458,5.351-20.918
			s31.376-11.918,31.376-11.918L77.602,169.958z"/>
		<path style="fill:#263238;stroke:#263238;stroke-miterlimit:10;" d="M108.735,143.284l-3.567,131.992l32.106-0.324l1.297-4.865
			l3.243-2.27c0,0,0-5.189,0-10.378c0-5.189-6.162-42.808-6.162-42.808s16.215-2.27,16.539-5.513
			c0.324-3.243-6.81-52.213-10.702-55.78C137.598,149.77,108.735,143.284,108.735,143.284z"/>
		<path style="fill:#FFFFFF;stroke:#263238;stroke-miterlimit:10;" d="M116.79,218.548l4.269,12.298c0,0,2.472-5.932,2.097-9.677
			c-0.375-3.745-0.375-4.868-1.498-5.056C120.535,215.927,116.977,215.178,116.79,218.548z"/>
		<g>
			<g>
				<polygon style="fill:#92E3A9;stroke:#263238;stroke-miterlimit:10;" points="74.123,186.595 87.792,213.745 102.21,206.63 
					90.039,177.982 				"/>
				<path style="fill:#FFFFFF;stroke:#263238;stroke-miterlimit:10;" d="M97.83,205.542c-0.286-1.012,0.165-2.025,1.008-2.264
					c0.081-0.023,0.163-0.031,0.245-0.038l-8.961-21.093c-0.184,0.402-0.503,0.71-0.92,0.828c-0.601,0.17-1.236-0.105-1.656-0.641
					l-9.506,5.145c0.115,0.179,0.212,0.377,0.274,0.598c0.249,0.881-0.061,1.763-0.702,2.134l9.451,18.772
					c0.171-0.185,0.38-0.328,0.628-0.398c0.757-0.214,1.569,0.273,1.935,1.107l8.236-4.064
					C97.852,205.597,97.839,205.571,97.83,205.542z M89.705,200.677c-1.741,0.493-3.632-0.801-4.224-2.891
					c-0.591-2.09,0.341-4.183,2.082-4.676c1.741-0.493,3.632,0.801,4.224,2.891C92.379,198.09,91.447,200.184,89.705,200.677z"/>
			</g>
			<g>
				<polygon style="fill:#92E3A9;stroke:#263238;stroke-miterlimit:10;" points="79.97,183.254 87.271,212.761 102.909,209.023 
					97.4,178.388 				"/>
				<path style="fill:#FFFFFF;stroke:#263238;stroke-miterlimit:10;" d="M98.88,206.99c-0.055-1.05,0.61-1.938,1.486-1.984
					c0.084-0.004,0.166,0.006,0.247,0.017l-4.056-22.556c-0.268,0.352-0.648,0.581-1.081,0.603
					c-0.624,0.033-1.182-0.377-1.473-0.993l-10.411,2.906c0.072,0.2,0.123,0.415,0.135,0.644c0.048,0.914-0.451,1.705-1.158,1.924
					l5.048,20.401c0.208-0.142,0.444-0.235,0.701-0.249c0.786-0.041,1.47,0.614,1.641,1.508l8.932-2.135
					C98.889,207.049,98.882,207.021,98.88,206.99z M92.038,200.443c-1.807,0.094-3.364-1.588-3.477-3.757
					c-0.113-2.169,1.261-4.003,3.068-4.097c1.807-0.094,3.364,1.588,3.477,3.756C95.219,198.515,93.845,200.349,92.038,200.443z"/>
			</g>
			<g>
				<polygon style="fill:#92E3A9;stroke:#263238;stroke-miterlimit:10;" points="88.619,180.969 86.94,211.319 102.986,212.335 
					106.71,181.432 				"/>
				<path style="fill:#FFFFFF;stroke:#263238;stroke-miterlimit:10;" d="M99.731,209.209c0.256-1.02,1.152-1.674,2.002-1.461
					c0.082,0.021,0.157,0.054,0.232,0.089l2.742-22.753c-0.36,0.258-0.79,0.365-1.21,0.26c-0.606-0.152-1.019-0.707-1.116-1.381
					l-10.805-0.277c0.01,0.212-0.004,0.432-0.06,0.655c-0.223,0.888-0.932,1.498-1.672,1.5l-1.161,20.984
					c0.241-0.075,0.493-0.095,0.743-0.032c0.763,0.191,1.225,1.018,1.126,1.924l9.166,0.58
					C99.723,209.268,99.724,209.238,99.731,209.209z M95.111,200.942c-1.755-0.44-2.75-2.505-2.221-4.611
					c0.529-2.106,2.38-3.457,4.135-3.016s2.75,2.505,2.221,4.611C98.718,200.032,96.867,201.383,95.111,200.942z"/>
			</g>
		</g>
		<g>
			<path style="fill:#FFFFFF;stroke:#263238;stroke-linecap:round;stroke-linejoin:round;stroke-miterlimit:10;" d="
				M121.658,210.684c0,0-4.494-0.749-5.243-1.124c-0.749-0.374-6.179-2.247-10.486-4.494c-4.307-2.247-7.864,0-14.043,1.124
				c-6.179,1.123-7.864,1.498-7.864,2.996c0,1.498,3.183,1.872,3.183,1.872s-2.996,0.374-1.498,2.434
				c1.498,2.06,3.558,2.621,3.558,2.621s1.311,2.247,3.183,3.558c1.872,1.311,3.183,2.434,3.183,2.434s1.872,2.434,4.494,3.183
				c2.621,0.749,17.413-3.745,17.413-3.745s4.494,1.311,5.617-1.123C124.279,217.987,121.658,210.684,121.658,210.684z"/>
			<path style="fill:none;stroke:#263238;stroke-linecap:round;stroke-linejoin:round;stroke-miterlimit:10;" d="M87.205,211.059
				c0,0,11.235-0.374,14.792-1.498"/>
			<path style="fill:none;stroke:#263238;stroke-linecap:round;stroke-linejoin:round;stroke-miterlimit:10;" d="M89.265,216.114
				c0,0,5.992,0.936,9.362,0.749c3.37-0.187,5.243-1.498,5.243-1.498"/>
			<path style="fill:none;stroke:#263238;stroke-linecap:round;stroke-linejoin:round;stroke-miterlimit:10;" d="M93.946,220.795
				c0,0,6.553,2.06,11.047,0.562"/>
		</g>
		<g>
			<path style="fill:#263238;stroke:#263238;stroke-miterlimit:10;" d="M127.221,178.633l3.567,27.89l-10.053,2.919
				c0,0,1.621,8.432,0.973,12.324c-0.649,3.892-0.649,9.081-0.649,9.081s11.026-3.567,18.161-4.216
				c7.135-0.649,13.297-3.892,15.242-9.08c1.946-5.189-4.216-23.026-4.216-23.026"/>
			<polyline style="fill:none;stroke:#6B6B6B;stroke-miterlimit:10;" points="125.895,208.617 130.788,206.524 143.191,203.195 			
				"/>
			<line style="fill:none;stroke:#6B6B6B;stroke-miterlimit:10;" x1="130.788" y1="206.524" x2="126.94" y2="173.584"/>
		</g>
		<path style="fill:#FFFFFF;stroke:#263238;stroke-miterlimit:10;" d="M67.382,205.881c0,0-2.247-9.924-3.183-11.796
			c-0.936-1.872-5.992,3.37-6.366,5.056C57.459,200.826,65.885,206.068,67.382,205.881z"/>
		<path style="fill:#FFFFFF;stroke:#263238;stroke-miterlimit:10;" d="M62.489,185.032l-4.844,5.682c0,0,1.311,8.239,2.434,8.613
			c1.123,0.374,8.8-5.617,8.8-5.617L62.489,185.032z"/>
		<path style="fill:#FFFFFF;stroke:#263238;stroke-linecap:round;stroke-linejoin:round;stroke-miterlimit:10;" d="M71.477,173.61
			c0,0-8.426,8.239-8.988,11.422c-0.562,3.183,5.43,9.175,6.179,9.737s6.179-3.745,6.366-4.494c0.187-0.749-3.558-6.553-3.558-6.553
			s4.494,2.247,5.056,2.809c0.562,0.562,4.119,5.617,5.43,5.243c1.311-0.375,0.749-2.809,0-5.056c-0.749-2.247-8.8-9.737-8.8-9.737
			l5.43,1.311c0,0,6.366,6.179,7.864,6.179c1.498,0,0.749-1.498-0.187-2.809c-0.936-1.311-5.43-6.553-6.554-7.864
			c-1.123-1.311-5.43-2.06-5.992-2.06C73.162,171.738,71.477,173.61,71.477,173.61z"/>
		
			<line style="fill:none;stroke:#263238;stroke-linecap:round;stroke-linejoin:round;stroke-miterlimit:10;" x1="71.477" y1="183.721" x2="68.856" y2="181.1"/>
		
			<line style="fill:none;stroke:#263238;stroke-linecap:round;stroke-linejoin:round;stroke-miterlimit:10;" x1="65.485" y1="184.283" x2="72.226" y2="192.522"/>
		<g>
			<path style="fill:#263238;stroke:#263238;stroke-miterlimit:10;" d="M57.459,189.778c0,0,1.311,4.494,2.06,7.303
				c0.749,2.809,7.864,8.8,7.864,8.8s-10.111,10.673-19.099,15.354c-8.988,4.681-19.549,2.33-22.732-1.415
				c-3.183-3.745-1.872-14.605,0.749-16.852c2.621-2.247,17.864-5.139,21.609-7.198C51.654,193.71,57.459,189.778,57.459,189.778z"
				/>
			<line style="fill:none;stroke:#6B6B6B;stroke-miterlimit:10;" x1="57.459" y1="189.778" x2="32.823" y2="201.82"/>
			<line style="fill:none;stroke:#6B6B6B;stroke-miterlimit:10;" x1="54.261" y1="191.362" x2="54.261" y2="179.859"/>
		</g>
	</g>
</g>
<g id="Banknotes_1">
	<g>
		<path style="fill:#92E3A9;stroke:#263238;stroke-linejoin:round;stroke-miterlimit:10;" d="M218.24,444.3
			c0,0-2.964,0.847-11.01-5.082c-8.046-5.928-17.362-14.398-17.362-14.398s9.243-1.239,13.511-3.495
			c4.705-2.486,10.203-8.362,10.203-8.362s18.633,25.408,41.923,23.714c0,0-0.847,6.776-8.046,9.74
			C240.26,449.382,218.24,444.3,218.24,444.3z"/>
		<path style="fill:#FFFFFF;stroke:#263238;stroke-miterlimit:10;" d="M248.471,439.592c0,0-19.783-5.189-30.485-16.539
			c0,0-3.892,0.973-4.54-3.243c0,0-4.865,5.189-13.621,6.162c0,0,0.324,2.27-0.649,2.919c0,0,15.242,13.297,23.999,14.918
			c8.756,1.622,14.269,1.297,18.485,0.973c4.216-0.324,7.135-3.243,7.135-3.243S245.552,440.889,248.471,439.592z M229.789,438.863
			c-0.705,1.743-4.238,1.958-7.891,0.48s-6.042-4.089-5.337-5.833c0.705-1.743,4.238-1.958,7.891-0.48
			C228.105,434.508,230.495,437.12,229.789,438.863z"/>
		<path style="fill:#92E3A9;stroke:#263238;stroke-linejoin:round;stroke-miterlimit:10;" d="M215.241,443.772
			c0,0,10.203,4.197,18.249,4.197c8.046,0,13.969-1.552,13.969-1.552s-2.753,1.502-7.217-1.368
			c-2.555-1.642-4.197-5.292-4.197-5.292S226.251,443.349,215.241,443.772z"/>
	</g>
	<g>
		<path style="fill:#92E3A9;stroke:#263238;stroke-linejoin:round;stroke-miterlimit:10;" d="M329.82,401.062
			c0,0,18.566-6.113,29.433-13.358l11.547,19.018c0,0-27.622,21.509-34.867,15.849L329.82,401.062z"/>
		<path style="fill:#FFFFFF;stroke:#263238;stroke-miterlimit:10;" d="M362.876,405.59c0-1.097,0.812-2.018,1.932-2.35l-5.13-8.506
			c-0.405,0.135-0.853,0.215-1.329,0.215c-1.275,0-2.366-0.541-2.87-1.316c-9.59,6.704-24.299,10.146-24.299,10.146l2.943,11.547
			c0,0-0.453,6.339,7.471,4.755c6.133-1.227,17.684-8.958,22.596-12.393C363.402,407.245,362.876,406.473,362.876,405.59z
			 M343.094,414.088c-3.474,0.795-6.708-0.388-7.225-2.643c-0.516-2.255,1.881-4.728,5.355-5.523
			c3.474-0.795,6.708,0.388,7.225,2.643C348.966,410.82,346.568,413.293,343.094,414.088z"/>
		<path style="fill:#92E3A9;stroke:#263238;stroke-linejoin:round;stroke-miterlimit:10;" d="M327.103,392.458l12.679,25.132
			c0,0-4.302,2.264-3.849,4.981l-12.226-23.999C323.707,398.571,322.122,394.722,327.103,392.458z"/>
		<path style="fill:#FFFFFF;stroke:#263238;stroke-miterlimit:10;" d="M324.792,400.702l9.414,18.478
			c0.462-1.36,1.953-2.044,1.953-2.044l-10.415-18.339L324.792,400.702z"/>
	</g>
	<g>
		<polygon style="fill:#92E3A9;stroke:#263238;stroke-miterlimit:10;" points="189.486,260.793 189.69,308.959 214.83,308.847 
			214.91,259.704 		"/>
		<path style="fill:#FFFFFF;stroke:#263238;stroke-miterlimit:10;" d="M209.321,304.225c0.255-1.65,1.56-2.786,2.914-2.539
			c0.13,0.024,0.252,0.07,0.373,0.116l-0.045-36.677c-0.472,0.403-1.062,0.599-1.664,0.489c-0.869-0.159-1.518-0.913-1.74-1.869
			l-15.185,0.651c0.042,0.303,0.049,0.62-0.001,0.943c-0.2,1.293-1.117,2.234-2.155,2.309l-0.045,33.974
			c0.364-0.145,0.755-0.204,1.153-0.131c1.216,0.223,2.051,1.488,2.025,2.938l14.361-0.064
			C209.316,304.32,209.314,304.273,209.321,304.225z M200.963,291.574c-2.796-0.512-4.636-3.688-4.108-7.095
			c0.527-3.407,3.222-5.755,6.018-5.243c2.796,0.512,4.636,3.688,4.108,7.095C206.454,289.738,203.759,292.086,200.963,291.574z"/>
	</g>
	<g>
		<polygon style="fill:#92E3A9;stroke:#263238;stroke-miterlimit:10;" points="424.558,56.971 389.496,92.03 407.799,110.327 
			443.781,74.767 		"/>
		<path style="fill:#FFFFFF;stroke:#263238;stroke-miterlimit:10;" d="M407.185,102.95c1.391-1.009,3.168-0.879,3.968,0.29
			c0.077,0.113,0.132,0.235,0.186,0.357l26.779-26.616c-0.637-0.053-1.208-0.342-1.563-0.862c-0.514-0.751-0.433-1.772,0.105-2.627
			l-11.482-10.629c-0.191,0.25-0.418,0.485-0.691,0.683c-1.09,0.791-2.443,0.803-3.25,0.098l-24.868,24.591
			c0.37,0.162,0.696,0.404,0.931,0.748c0.719,1.05,0.399,2.578-0.681,3.61l10.455,10.452
			C407.113,103.015,407.144,102.979,407.185,102.95z M410.375,87.67c-1.653-2.415-0.664-6.062,2.209-8.146
			c2.873-2.084,6.542-1.815,8.195,0.599c1.653,2.415,0.664,6.062-2.209,8.146C415.697,90.353,412.028,90.085,410.375,87.67z"/>
	</g>
	<g>
		<polygon style="fill:#92E3A9;stroke:#263238;stroke-miterlimit:10;" points="183.002,203.943 231.784,184.649 221.709,159.189 
			171.822,178.582 		"/>
		<path style="fill:#FFFFFF;stroke:#263238;stroke-miterlimit:10;" d="M219.203,166.609c-1.775,0.395-3.445-0.479-3.73-1.95
			c-0.028-0.142-0.029-0.283-0.03-0.425l-37.19,14.58c0.596,0.319,1.029,0.84,1.155,1.494c0.183,0.945-0.325,1.902-1.207,2.506
			l6.678,15.148c0.291-0.162,0.609-0.295,0.958-0.372c1.391-0.309,2.709,0.248,3.196,1.271l34.485-13.417
			c-0.291-0.312-0.506-0.685-0.59-1.118c-0.256-1.322,0.696-2.67,2.179-3.218l-5.755-14.543
			C219.301,166.577,219.255,166.598,219.203,166.609z M209.681,180.102c0.589,3.04-1.905,6.165-5.57,6.98
			c-3.666,0.815-7.115-0.988-7.704-4.028c-0.589-3.04,1.905-6.165,5.57-6.98C205.643,175.259,209.092,177.063,209.681,180.102z"/>
	</g>
	<g>
		<path style="fill:#92E3A9;stroke:#263238;stroke-linejoin:round;stroke-miterlimit:10;" d="M355.171,56.807
			c0,0,2.98,0.789,6.861,9.998s7.554,21.253,7.554,21.253s-8.576-3.663-13.398-3.908c-5.315-0.27-13.044,1.967-13.044,1.967
			s-3.014-31.363-23.893-41.821c0,0,4.193-5.389,11.895-4.253C338.849,41.178,355.171,56.807,355.171,56.807z"/>
		<path style="fill:#FFFFFF;stroke:#263238;stroke-miterlimit:10;" d="M326.786,45.39c0,0,14.344,14.578,17.735,29.805
			c0,0,3.842,1.155,2.242,5.109c0,0,6.834-1.97,14.856,1.673c0,0,0.883-2.117,2.05-2.176c0,0-6.296-19.222-12.991-25.094
			c-6.695-5.872-11.598-8.414-15.386-10.291c-3.789-1.878-7.79-0.863-7.79-0.863S329.957,45.768,326.786,45.39z M342.466,55.572
			c1.498-1.137,4.644,0.485,7.026,3.624c2.383,3.138,3.1,6.604,1.602,7.742c-1.498,1.137-4.644-0.485-7.026-3.624
			C341.685,60.175,340.968,56.709,342.466,55.572z"/>
		<path style="fill:#92E3A9;stroke:#263238;stroke-linejoin:round;stroke-miterlimit:10;" d="M357.478,58.795
			c0,0-6.62-8.826-13.534-12.941s-12.797-5.812-12.797-5.812s3.134,0.118,5.502,4.867c1.355,2.718,0.9,6.694,0.9,6.694
			S347.8,53.527,357.478,58.795z"/>
	</g>
	<g>
		<path style="fill:#92E3A9;stroke:#263238;stroke-miterlimit:10;" d="M96.393,31.599l4.827,17.7c0,0-24.136,17.879-60.608,12.873
			l1.967-19.13c0,0,14.303,2.861,27.354,0.179C82.984,40.538,96.393,31.599,96.393,31.599z"/>
		<path style="fill:#FFFFFF;stroke:#263238;stroke-miterlimit:10;" d="M93.63,48.523c0-0.805,0.661-1.495,1.617-1.84l-2.845-7.869
			c-0.389,0.128-0.826,0.208-1.295,0.208c-0.871,0-1.64-0.255-2.158-0.647c-3.913,2.091-11.463,5.752-18.943,7.302
			c-8.081,1.675-16.819,1.191-20.675,0.845c-0.222,0.437-1.072,0.765-2.114,0.804l-0.951,10.728
			c0.242-0.019,0.492-0.031,0.749-0.031c1.968,0,3.563,0.598,3.563,1.336c0,0.209-0.14,0.405-0.369,0.582
			c23.171,0.881,39.388-7.128,44.315-9.936C93.973,49.629,93.63,49.104,93.63,48.523z M70.698,54.112
			c-3.537,0.708-6.64,0.109-6.929-1.338c-0.29-1.447,2.343-3.194,5.88-3.902c3.537-0.708,6.64-0.109,6.93,1.338
			C76.868,51.657,74.236,53.404,70.698,54.112z"/>
	</g>
	<g>
		<path style="fill:#92E3A9;stroke:#263238;stroke-miterlimit:10;" d="M422.076,425.772l4.827,17.7c0,0-24.136,17.879-60.608,12.873
			l1.967-19.13c0,0,14.303,2.861,27.354,0.179C408.667,434.711,422.076,425.772,422.076,425.772z"/>
		<path style="fill:#FFFFFF;stroke:#263238;stroke-miterlimit:10;" d="M419.312,442.695c0-0.805,0.661-1.495,1.617-1.84
			l-2.845-7.868c-0.39,0.128-0.826,0.208-1.296,0.208c-0.871,0-1.64-0.255-2.158-0.647c-3.914,2.091-11.463,5.752-18.943,7.302
			c-8.081,1.675-16.819,1.191-20.675,0.845c-0.222,0.436-1.072,0.765-2.114,0.804l-0.951,10.728
			c0.242-0.019,0.492-0.031,0.749-0.031c1.968,0,3.563,0.598,3.563,1.336c0,0.21-0.14,0.405-0.369,0.582
			c23.171,0.881,39.388-7.128,44.315-9.935C419.656,443.802,419.312,443.277,419.312,442.695z M396.381,448.285
			c-3.537,0.708-6.64,0.109-6.929-1.338c-0.29-1.447,2.343-3.194,5.881-3.902c3.537-0.708,6.64-0.109,6.929,1.338
			C402.551,445.83,399.918,447.577,396.381,448.285z"/>
	</g>
	<g>
		<path style="fill:#92E3A9;stroke:#263238;stroke-linejoin:round;stroke-miterlimit:10;" d="M169.238,54.163
			c0,0,18.566-6.113,29.433-13.358l11.547,19.018c0,0-27.622,21.509-34.867,15.849L169.238,54.163z"/>
		<path style="fill:#FFFFFF;stroke:#263238;stroke-miterlimit:10;" d="M202.293,58.691c0-1.097,0.812-2.018,1.932-2.35l-5.131-8.506
			c-0.405,0.135-0.853,0.215-1.329,0.215c-1.275,0-2.366-0.541-2.87-1.316c-9.59,6.704-24.299,10.146-24.299,10.146l2.943,11.547
			c0,0-0.453,6.34,7.472,4.755c6.133-1.227,17.684-8.958,22.596-12.394C202.819,60.345,202.293,59.574,202.293,58.691z
			 M182.512,67.189c-3.474,0.795-6.708-0.388-7.225-2.643c-0.516-2.255,1.881-4.728,5.355-5.523s6.708,0.388,7.225,2.643
			C188.383,63.921,185.986,66.393,182.512,67.189z"/>
		<path style="fill:#92E3A9;stroke:#263238;stroke-linejoin:round;stroke-miterlimit:10;" d="M166.521,45.559L179.2,70.691
			c0,0-4.302,2.264-3.849,4.981l-12.226-24C163.124,51.672,161.54,47.823,166.521,45.559z"/>
		<path style="fill:#FFFFFF;stroke:#263238;stroke-miterlimit:10;" d="M164.21,53.803l9.413,18.478
			c0.462-1.36,1.954-2.044,1.954-2.044l-10.415-18.339L164.21,53.803z"/>
	</g>
	<g>
		<polygon style="fill:#92E3A9;stroke:#263238;stroke-miterlimit:10;" points="324.513,165.619 289.451,200.678 307.754,218.975 
			343.736,183.415 		"/>
		<path style="fill:#FFFFFF;stroke:#263238;stroke-miterlimit:10;" d="M307.139,211.598c1.391-1.009,3.168-0.879,3.968,0.29
			c0.077,0.113,0.132,0.235,0.185,0.357l26.779-26.616c-0.637-0.053-1.208-0.342-1.564-0.862c-0.514-0.751-0.433-1.772,0.105-2.627
			l-11.482-10.629c-0.191,0.25-0.418,0.485-0.691,0.683c-1.09,0.791-2.443,0.803-3.25,0.098l-24.868,24.591
			c0.37,0.162,0.696,0.404,0.931,0.748c0.719,1.051,0.399,2.578-0.681,3.61l10.455,10.452
			C307.067,211.663,307.099,211.627,307.139,211.598z M310.33,196.318c-1.653-2.415-0.664-6.062,2.209-8.146
			c2.873-2.084,6.542-1.815,8.195,0.6c1.653,2.415,0.664,6.062-2.209,8.146C315.652,199.002,311.983,198.733,310.33,196.318z"/>
	</g>
	<g>
		<polygon style="fill:#92E3A9;stroke:#263238;stroke-miterlimit:10;" points="388.603,251.164 436.509,256.16 439.112,231.155 
			390.265,225.771 		"/>
		<path style="fill:#FFFFFF;stroke:#263238;stroke-miterlimit:10;" d="M433.923,236.133c-1.613-0.432-2.602-1.852-2.209-3.171
			c0.038-0.127,0.096-0.243,0.156-0.359l-36.467-3.914c0.35,0.513,0.481,1.12,0.306,1.707c-0.252,0.847-1.072,1.411-2.046,1.528
			l-0.992,15.167c0.306-0.009,0.621,0.019,0.938,0.103c1.264,0.339,2.101,1.352,2.063,2.392l33.771,3.712
			c-0.104-0.378-0.121-0.772-0.005-1.161c0.352-1.185,1.7-1.878,3.14-1.696l1.487-14.284
			C434.016,236.148,433.969,236.146,433.923,236.133z M420.443,243.077c-0.81,2.725-4.167,4.211-7.497,3.318
			c-3.33-0.892-5.373-3.824-4.563-6.549c0.81-2.725,4.167-4.21,7.497-3.318C419.21,237.42,421.253,240.352,420.443,243.077z"/>
	</g>
	<g>
		<path style="fill:#92E3A9;stroke:#263238;stroke-linejoin:round;stroke-miterlimit:10;" d="M443.176,296.428
			c0,0,2.98,0.789,6.862,9.998c3.881,9.21,7.554,21.253,7.554,21.253s-8.576-3.663-13.398-3.908
			c-5.315-0.27-13.044,1.967-13.044,1.967s-3.014-31.363-23.894-41.821c0,0,4.193-5.389,11.896-4.254
			C426.854,280.798,443.176,296.428,443.176,296.428z"/>
		<path style="fill:#FFFFFF;stroke:#263238;stroke-miterlimit:10;" d="M414.791,285.01c0,0,14.345,14.578,17.735,29.805
			c0,0,3.842,1.155,2.242,5.109c0,0,6.834-1.97,14.856,1.673c0,0,0.883-2.117,2.05-2.176c0,0-6.296-19.222-12.991-25.094
			c-6.695-5.872-11.598-8.413-15.386-10.291c-3.789-1.878-7.789-0.863-7.789-0.863S417.963,285.388,414.791,285.01z
			 M430.471,295.193c1.498-1.137,4.644,0.485,7.026,3.624c2.383,3.138,3.1,6.604,1.602,7.742c-1.498,1.137-4.644-0.485-7.026-3.624
			C429.691,299.796,428.973,296.33,430.471,295.193z"/>
		<path style="fill:#92E3A9;stroke:#263238;stroke-linejoin:round;stroke-miterlimit:10;" d="M445.483,298.415
			c0,0-6.62-8.826-13.534-12.941c-6.914-4.116-12.797-5.812-12.797-5.812s3.134,0.118,5.502,4.867c1.355,2.718,0.9,6.694,0.9,6.694
			S435.806,293.147,445.483,298.415z"/>
	</g>
	<g>
		<path style="fill:#92E3A9;stroke:#263238;stroke-linejoin:round;stroke-miterlimit:10;" d="M420.005,180.829
			c0,0-16.189,10.954-24.663,20.893l-16.304-15.139c0,0,20.693-28.238,29.209-24.773L420.005,180.829z"/>
		<path style="fill:#FFFFFF;stroke:#263238;stroke-miterlimit:10;" d="M386.97,185.506c0.3,1.056-0.229,2.163-1.216,2.789
			l7.259,6.78c0.353-0.24,0.762-0.44,1.22-0.57c1.226-0.348,2.424-0.127,3.12,0.481c7.394-9.069,20.602-16.399,20.602-16.399
			l-5.986-10.303c0,0-1.297-6.222-8.486-2.532c-5.564,2.856-14.563,13.45-18.35,18.096
			C386.012,184.058,386.729,184.656,386.97,185.506z M403.677,171.926c3.124-1.714,6.559-1.46,7.672,0.568
			c1.113,2.028-0.518,5.062-3.642,6.776c-3.124,1.714-6.559,1.46-7.672-0.568C398.922,176.674,400.553,173.641,403.677,171.926z"/>
		<path style="fill:#92E3A9;stroke:#263238;stroke-linejoin:round;stroke-miterlimit:10;" d="M424.97,188.363l-19.064-20.71
			c0,0,3.519-3.353,2.341-5.843l18.319,19.745C426.566,181.555,429.143,184.824,424.97,188.363z"/>
		<path style="fill:#FFFFFF;stroke:#263238;stroke-miterlimit:10;" d="M424.94,179.802l-14.104-15.203
			c-0.073,1.435-1.321,2.5-1.321,2.5l15.03,14.795L424.94,179.802z"/>
	</g>
</g>
<g id="Floor">
	
		<line style="fill:none;stroke:#263238;stroke-linecap:round;stroke-linejoin:round;stroke-miterlimit:10;" x1="9.659" y1="463.176" x2="488" y2="463.176"/>
</g>
</svg>
